<svg id="Ride_a_bicycle-rafiki" data-name="Ride a bicycle-rafiki" xmlns="http://www.w3.org/2000/svg" width="342.991" height="179.325" viewBox="0 0 342.991 179.325">
  <g id="freepik--Shadow--inject-45" transform="translate(0 159.3)">
    <ellipse id="freepik--path--inject-45" cx="171.495" cy="10.013" rx="171.495" ry="10.013" transform="translate(0 0)" fill="#7b7979"/>
  </g>
  <g id="freepik--Character--inject-45" transform="translate(30.453)">
    <path id="Path_3344" data-name="Path 3344" d="M146.9,295.856a49.293,49.293,0,1,0,49.293,49.293A49.293,49.293,0,0,0,146.9,295.856m0-7.076a56.363,56.363,0,1,0,.006,0Z" transform="translate(78.806 -232.205)" fill="#a6a998"/>
    <path id="Path_3345" data-name="Path 3345" d="M147.234,298.276a47.188,47.188,0,1,0,47.179,47.185,47.19,47.19,0,0,0-47.179-47.185m0-6.766A53.954,53.954,0,1,1,93.28,345.464a53.954,53.954,0,0,1,53.954-53.954Z" transform="translate(78.472 -232.521)" fill="#6b6b6b"/>
    <path id="Path_3346" data-name="Path 3346" d="M338.378,295.856a49.289,49.289,0,1,1-.009,0m0-7.076A56.369,56.369,0,1,1,282,345.149a56.369,56.369,0,0,1,56.369-56.369Z" transform="translate(-282 -232.205)" fill="#a6a998"/>
    <path id="Path_3347" data-name="Path 3347" d="M338.674,298.276a47.188,47.188,0,1,0,47.179,47.185,47.19,47.19,0,0,0-47.179-47.185m0-6.766a53.954,53.954,0,1,1-53.954,53.954A53.954,53.954,0,0,1,338.674,291.51Z" transform="translate(-282.296 -232.521)" fill="#6b6b6b"/>
    <path id="Path_3348" data-name="Path 3348" d="M237.8,364.2a8.7,8.7,0,1,0,8.7,8.7,8.7,8.7,0,0,0-8.7-8.7m0-4.422a13.117,13.117,0,1,1-9.284,3.842A13.126,13.126,0,0,1,237.8,359.78Z" transform="translate(-87.475 -240.406)" fill="#a6a998"/>
    <circle id="Ellipse_2" data-name="Ellipse 2" cx="8.695" cy="8.695" r="8.695" transform="translate(217.012 104.249)" fill="#363636"/>
    <circle id="Ellipse_3" data-name="Ellipse 3" cx="8.695" cy="8.695" r="8.695" transform="translate(47.683 104.249)" fill="#263238"/>
    <path id="Path_3349" data-name="Path 3349" d="M232.8,345.319h0a6.1,6.1,0,0,0-1.636.23h-.195l-76.217,15.2a10.472,10.472,0,0,0,2.653,20.609,10.61,10.61,0,0,0,2.53-.31l74.4-23.882h.1a6.05,6.05,0,0,0-1.619-11.87m0-2.653a8.7,8.7,0,0,1,2.317,17.124l-74.475,23.881a13.269,13.269,0,0,1-3.255.407,13.126,13.126,0,0,1-3.228-25.845l76.288-15.249a8.566,8.566,0,0,1,2.344-.327Z" transform="translate(-7.086 -238.425)" fill="#a6a998"/>
    <path id="Path_3350" data-name="Path 3350" d="M261.025,362.319a2.765,2.765,0,0,0,.38,0,2.654,2.654,0,0,0,2.07-1.592l47.223-111.9a2.654,2.654,0,1,0-4.891-2.061L260.3,354.571,187.771,265.82a2.653,2.653,0,0,0-4.1,3.361l75.28,92.165a2.654,2.654,0,0,0,2.079.973Z" transform="translate(-110.704 -227.165)" fill="#a6a998"/>
    <path id="Path_3351" data-name="Path 3351" d="M189.575,344.251a1.769,1.769,0,0,0,1.6-2.53l-35.495-74.935a1.769,1.769,0,1,0-3.193,1.512l35.486,74.935A1.769,1.769,0,0,0,189.575,344.251Z" transform="translate(36.132 -229.538)" fill="#a6a998"/>
    <path id="Path_3352" data-name="Path 3352" d="M194.045,343.706a2.654,2.654,0,0,0,2.574-2l21.3-82.878,109.731,9.924a2.664,2.664,0,0,0,.478-5.307L216.149,253.319a2.654,2.654,0,0,0-2.813,1.981l-21.865,85.062a2.653,2.653,0,0,0,1.91,3.228A2.44,2.44,0,0,0,194.045,343.706Z" transform="translate(-137.667 -228.108)" fill="#a6a998"/>
    <path id="Path_3353" data-name="Path 3353" d="M317.079,255.776a2.653,2.653,0,0,0,2.654-2.273l3.158-21.9a2.655,2.655,0,0,0-5.254-.77l-3.211,21.909a2.653,2.653,0,0,0,2.247,3.007,2.754,2.754,0,0,0,.407.026Z" transform="translate(-238.837 -225.25)" fill="#a6a998"/>
    <path id="Path_3354" data-name="Path 3354" d="M323.353,239.732a2.592,2.592,0,0,0,1.309-4.821l-16.593-9.729a2.6,2.6,0,0,0-2.653,4.467L322,239.379A2.654,2.654,0,0,0,323.353,239.732Z" transform="translate(-232.781 -224.818)" fill="#363636"/>
    <path id="Path_3355" data-name="Path 3355" d="M210,246.222c-4.626,5.891-24.2-.69-30.135-2.654s-19.459,1.964-17.434-2.654,31.736-2.8,35.866-4.422C207.044,233.052,217.923,236.095,210,246.222Z" transform="translate(5.935 -226.009)" fill="#363636"/>
    <path id="Path_3356" data-name="Path 3356" d="M246.05,400.683a1.769,1.769,0,0,0,1.707-2.238l-15.638-56.4a1.769,1.769,0,0,0-3.405.946l15.638,56.369A1.769,1.769,0,0,0,246.05,400.683Z" transform="translate(-87.91 -238.216)" fill="#363636"/>
    <path id="Path_3357" data-name="Path 3357" d="M235.409,344.278h15.629a1.769,1.769,0,1,0,0-3.538H235.409a1.769,1.769,0,1,0,0,3.538Z" transform="translate(-97.294 -238.207)" fill="#363636"/>
    <path id="Path_3358" data-name="Path 3358" d="M225.479,408.038H241.1a1.769,1.769,0,0,0,0-3.538h-15.62a1.769,1.769,0,0,0,0,3.538Z" transform="translate(-78.573 -245.571)" fill="#363636"/>
  </g>
</svg>
