<svg xmlns="http://www.w3.org/2000/svg" width="18.042" height="18.042" viewBox="0 0 18.042 18.042">
  <g id="layer1" transform="translate(-0.529 -0.529)">
    <path id="path2546" d="M4.131,1.433v.9h-2.7a.9.9,0,0,0-.9.905V17.664a.9.9,0,0,0,.9.907H17.665a.9.9,0,0,0,.906-.907V3.237a.9.9,0,0,0-.906-.905h-2.7v-.9a.9.9,0,1,0-1.806,0v.9H5.936v-.9a.9.9,0,1,0-1.8,0Zm-1.8,2.7h1.8v.907a.9.9,0,0,0,1.8,0V4.135h7.22v.907a.9.9,0,0,0,1.806,0V4.135h1.8V6.846H2.334Zm0,4.508H16.766v8.122H2.334Zm1.8.905a.9.9,0,0,0,0,1.806h1.8a.9.9,0,1,0,0-1.806Zm4.517,0a.9.9,0,1,0,0,1.806h1.8a.9.9,0,1,0,0-1.806Zm4.508,0a.9.9,0,0,0,0,1.806h1.806a.9.9,0,1,0,0-1.806ZM4.131,13.158a.9.9,0,0,0,0,1.8h1.8a.9.9,0,1,0,0-1.8Zm4.517,0a.9.9,0,1,0,0,1.8h1.8a.9.9,0,0,0,0-1.8Zm4.508,0a.9.9,0,0,0,0,1.8h1.806a.9.9,0,1,0,0-1.8Z" transform="translate(0 0)"/>
  </g>
</svg>
