<svg xmlns="http://www.w3.org/2000/svg" width="24.057" height="20.356" viewBox="0 0 24.057 20.356">
  <g id="_4781833_filter_filters_funnel_list_navigation_icon" data-name="4781833_filter_filters_funnel_list_navigation_icon" transform="translate(-3 -5)">
    <g id="Layer_2" data-name="Layer 2" transform="translate(3 5)">
      <path id="Path_14724" data-name="Path 14724" d="M26.655,8.851H10.925a.925.925,0,1,1,0-1.851h15.73a.925.925,0,0,1,0,1.851Z" transform="translate(-3.523 -5.149)" fill="#79bf89"/>
      <path id="Path_14725" data-name="Path 14725" d="M6.7,8.851H3.925A.925.925,0,1,1,3.925,7H6.7a.925.925,0,1,1,0,1.851Z" transform="translate(-3 -5.149)" fill="#79bf89"/>
      <path id="Path_14726" data-name="Path 14726" d="M19.655,16.851H3.925a.925.925,0,1,1,0-1.851h15.73a.925.925,0,1,1,0,1.851Z" transform="translate(-3 -5.747)" fill="#79bf89"/>
      <path id="Path_14727" data-name="Path 14727" d="M10.4,24.851H3.925a.925.925,0,0,1,0-1.851H10.4a.925.925,0,0,1,0,1.851Z" transform="translate(-3 -6.345)" fill="#79bf89"/>
      <path id="Path_14728" data-name="Path 14728" d="M8.776,10.552a2.776,2.776,0,1,1,2.776-2.776A2.776,2.776,0,0,1,8.776,10.552Zm0-3.7a.925.925,0,1,0,.925.925A.925.925,0,0,0,8.776,6.851Z" transform="translate(-3.224 -5)" fill="#79bf89"/>
      <path id="Path_14729" data-name="Path 14729" d="M22.776,18.552a2.776,2.776,0,1,1,2.776-2.776A2.776,2.776,0,0,1,22.776,18.552Zm0-3.7a.925.925,0,1,0,.925.925A.925.925,0,0,0,22.776,14.851Z" transform="translate(-4.27 -5.598)" fill="#79bf89"/>
      <path id="Path_14730" data-name="Path 14730" d="M12.776,26.552a2.776,2.776,0,1,1,2.776-2.776A2.776,2.776,0,0,1,12.776,26.552Zm0-3.7a.925.925,0,1,0,.925.925A.925.925,0,0,0,12.776,22.851Z" transform="translate(-3.523 -6.196)" fill="#79bf89"/>
      <path id="Path_14731" data-name="Path 14731" d="M27.7,16.851H24.925a.925.925,0,1,1,0-1.851H27.7a.925.925,0,0,1,0,1.851Z" transform="translate(-4.569 -5.747)" fill="#79bf89"/>
      <path id="Path_14732" data-name="Path 14732" d="M26.954,24.851H14.925a.925.925,0,0,1,0-1.851H26.954a.925.925,0,0,1,0,1.851Z" transform="translate(-3.822 -6.345)" fill="#79bf89"/>
    </g>
  </g>
</svg>
