<svg xmlns="http://www.w3.org/2000/svg" width="194.06" height="101.46" viewBox="0 0 194.06 101.46">
  <g id="ride" transform="translate(-16.005 -639.675)">
    <g id="Ride_a_bicycle-rafiki" data-name="Ride a bicycle-rafiki" transform="translate(16.005 639.675)">
      <g id="freepik--Shadow--inject-45" transform="translate(0 90.13)">
        <ellipse id="freepik--path--inject-45" cx="97.03" cy="5.665" rx="97.03" ry="5.665" transform="translate(0 0)" fill="#1a1818"/>
      </g>
      <g id="freepik--Character--inject-45" transform="translate(17.23)">
        <path id="Path_3344" data-name="Path 3344" d="M122.428,292.783a27.889,27.889,0,1,0,27.889,27.889,27.889,27.889,0,0,0-27.889-27.889m0-4A31.893,31.893,0,1,1,90.54,320.671a31.894,31.894,0,0,1,31.888-31.891Z" transform="translate(5.274 -256.771)" fill="#79bf89"/>
        <path id="Path_3345" data-name="Path 3345" d="M123.807,295.338a26.7,26.7,0,1,0,26.693,26.7,26.7,26.7,0,0,0-26.693-26.7m0-3.828A30.527,30.527,0,1,1,93.28,322.037a30.527,30.527,0,0,1,30.527-30.527Z" transform="translate(3.895 -258.135)" fill="#1a1818"/>
        <path id="Path_3346" data-name="Path 3346" d="M313.9,292.783a27.889,27.889,0,1,0,27.884,27.888A27.891,27.891,0,0,0,313.9,292.783m0-4A31.893,31.893,0,1,1,282,320.673,31.893,31.893,0,0,1,313.893,288.78Z" transform="translate(-282 -256.771)" fill="#79bf89"/>
        <path id="Path_3347" data-name="Path 3347" d="M315.247,295.338a26.7,26.7,0,1,0,26.693,26.7,26.7,26.7,0,0,0-26.693-26.7m0-3.828a30.527,30.527,0,1,1-30.527,30.527A30.527,30.527,0,0,1,315.247,291.51Z" transform="translate(-283.349 -258.135)" fill="#1a1818"/>
        <path id="Path_3348" data-name="Path 3348" d="M232.1,362.282a4.924,4.924,0,1,0,4.924,4.924,4.924,4.924,0,0,0-4.924-4.924m0-2.5a7.422,7.422,0,1,1-5.253,2.174A7.426,7.426,0,0,1,232.1,359.78Z" transform="translate(-147.047 -292.24)" fill="#79bf89"/>
        <circle id="Ellipse_2" data-name="Ellipse 2" cx="4.919" cy="4.919" r="4.919" transform="translate(122.783 58.983)" fill="#363636"/>
        <circle id="Ellipse_3" data-name="Ellipse 3" cx="4.919" cy="4.919" r="4.919" transform="translate(26.979 58.983)" fill="#263238"/>
        <path id="Path_3349" data-name="Path 3349" d="M194.366,344.151h0a3.451,3.451,0,0,0-.926.13h-.11l-43.123,8.6a5.925,5.925,0,0,0,1.5,11.66,6,6,0,0,0,1.431-.175l42.092-13.512h.055a3.423,3.423,0,0,0-.916-6.716m0-1.5a4.924,4.924,0,0,1,1.311,9.688l-42.137,13.512a7.506,7.506,0,0,1-1.842.23,7.427,7.427,0,0,1-1.827-14.623l43.163-8.628a4.847,4.847,0,0,1,1.326-.185Z" transform="translate(-66.659 -283.672)" fill="#79bf89"/>
        <path id="Path_3350" data-name="Path 3350" d="M227.195,311.44a1.572,1.572,0,0,0,.215,0,1.5,1.5,0,0,0,1.171-.9L255.3,247.229a1.5,1.5,0,1,0-2.767-1.166l-25.748,60.993-41.036-50.214a1.5,1.5,0,0,0-2.322,1.9l42.592,52.146a1.5,1.5,0,0,0,1.176.551Z" transform="translate(-142.145 -234.972)" fill="#1a1818"/>
        <path id="Path_3351" data-name="Path 3351" d="M173.379,310.139a1,1,0,0,0,.906-1.431l-20.083-42.4a1,1,0,1,0-1.807.856l20.078,42.4A1,1,0,0,0,173.379,310.139Z" transform="translate(-45.677 -245.236)" fill="#1a1818"/>
        <path id="Path_3352" data-name="Path 3352" d="M192.891,304.453a1.5,1.5,0,0,0,1.456-1.131L206.4,256.431l62.084,5.615a1.507,1.507,0,0,0,.27-3l-63.356-5.73a1.5,1.5,0,0,0-1.591,1.121l-12.371,48.127a1.5,1.5,0,0,0,1.081,1.827A1.379,1.379,0,0,0,192.891,304.453Z" transform="translate(-160.993 -239.05)" fill="#1a1818"/>
        <path id="Path_3353" data-name="Path 3353" d="M315.915,243.96a1.5,1.5,0,0,0,1.5-1.286l1.787-12.391a1.5,1.5,0,0,0-2.973-.435l-1.817,12.4a1.5,1.5,0,0,0,1.271,1.7,1.557,1.557,0,0,0,.23.015Z" transform="translate(-271.646 -226.689)" fill="#1a1818"/>
        <path id="Path_3354" data-name="Path 3354" d="M315.013,233.256a1.466,1.466,0,0,0,.741-2.727l-9.388-5.5a1.47,1.47,0,0,0-1.5,2.527l9.383,5.5A1.5,1.5,0,0,0,315.013,233.256Z" transform="translate(-263.768 -224.818)" fill="#79bf89"/>
        <path id="Path_3355" data-name="Path 3355" d="M189.254,241.408c-2.617,3.333-13.692-.39-17.05-1.5s-11.01,1.111-9.864-1.5,17.956-1.586,20.293-2.5C187.583,233.956,193.738,235.678,189.254,241.408Z" transform="translate(-67.082 -229.971)" fill="#79bf89"/>
        <path id="Path_3356" data-name="Path 3356" d="M238.5,374.69a1,1,0,0,0,.966-1.266l-8.848-31.913a1,1,0,0,0-1.927.535l8.848,31.893A1,1,0,0,0,238.5,374.69Z" transform="translate(-149.029 -282.769)" fill="#79bf89"/>
        <path id="Path_3357" data-name="Path 3357" d="M234.641,342.742h8.843a1,1,0,1,0,0-2h-8.843a1,1,0,1,0,0,2Z" transform="translate(-156.497 -282.728)" fill="#79bf89"/>
        <path id="Path_3358" data-name="Path 3358" d="M224.711,406.5h8.838a1,1,0,0,0,0-2h-8.838a1,1,0,0,0,0,2Z" transform="translate(-141.593 -314.58)" fill="#79bf89"/>
      </g>
    </g>
  </g>
</svg>
