<svg xmlns="http://www.w3.org/2000/svg" width="25.791" height="27.369" viewBox="0 0 25.791 27.369">
  <path id="_1976053_home_home_page_homepage_homepages_icon" data-name="1976053_home_home page_homepage_homepages_icon" d="M26.69,10.561,16.9,2.608a3.3,3.3,0,0,0-4.138,0h0L2.978,10.56a1.45,1.45,0,0,0-.539,1.132V26.656A1.466,1.466,0,0,0,3.9,28.121H10.46a1.466,1.466,0,0,0,1.458-1.465V17.184h5.832v9.471a1.466,1.466,0,0,0,1.458,1.465h6.562a1.466,1.466,0,0,0,1.458-1.465V11.692A1.454,1.454,0,0,0,26.69,10.561Zm-.92,16.1H19.208V17.178a1.454,1.454,0,0,0-1.458-1.451H11.917a1.454,1.454,0,0,0-1.458,1.451v9.486H3.9V11.692L13.685,3.74a1.83,1.83,0,0,1,2.3,0l9.788,7.952V26.664Z" transform="translate(-1.939 -1.252)" stroke="#000" stroke-width="1"/>
</svg>
