<svg xmlns="http://www.w3.org/2000/svg" width="24.079" height="24.737" viewBox="0 0 24.079 24.737">
  <g id="_751116_air_conditioning_ac_cooling_heating_icon" data-name="751116_air_conditioning_ac_cooling_heating_icon" transform="translate(0)">
    <path id="Path_3849" data-name="Path 3849" d="M23.018.117H2.993A2.035,2.035,0,0,0,.966,2.161V15.553H25.045V2.161A2.035,2.035,0,0,0,23.018.117Zm.744,9.37v4.674H2.353V3.212a1.74,1.74,0,0,1,1.8-1.671h17.8a1.74,1.74,0,0,1,1.8,1.671Z" transform="translate(-0.966 -0.117)" fill="#241f20"/>
    <path id="Path_3850" data-name="Path 3850" d="M26.99,13.576a.67.67,0,0,1-.671.67h-16a.67.67,0,0,1-.67-.67v-.587a.67.67,0,0,1,.67-.67h16a.67.67,0,0,1,.671.67v.587Z" transform="translate(-6.279 -7.585)" fill="#241f20"/>
    <path id="Path_3851" data-name="Path 3851" d="M26.99,23.943a.67.67,0,0,1-.671.67h-16a.67.67,0,0,1-.67-.67v-.587a.67.67,0,0,1,.67-.67h16a.671.671,0,0,1,.671.67v.587Z" transform="translate(-6.279 -13.93)" fill="#241f20"/>
    <g id="Group_5182" data-name="Group 5182" transform="translate(4.3 18.145)">
      <path id="Path_3852" data-name="Path 3852" d="M15.323,51.553h-.793v-3.97a.637.637,0,0,0-.669-.694H13.69a.7.7,0,0,0-.723.757v3.907h-.733s-.412.029,0,.466l1.249,1.324h0v0l.024.024a.338.338,0,0,0,.525-.027l1.294-1.3C15.787,51.581,15.323,51.553,15.323,51.553Z" transform="translate(-12.05 -46.889)" fill="#241f20"/>
      <path id="Path_3853" data-name="Path 3853" d="M30.688,51.553h-.706V47.667c0-.623-.363-.755-.594-.778h-.31a.659.659,0,0,0-.66.726v3.938h-.761c-.109,0-.423.047.033.531l1.081,1.147h0v0l.089.094c.121.105.361.222.677-.1h0l1.148-1.153C31.178,51.587,30.688,51.553,30.688,51.553Z" transform="translate(-21.476 -46.889)" fill="#241f20"/>
      <path id="Path_3854" data-name="Path 3854" d="M46.382,51.553h-.7V47.594a.623.623,0,0,0-.611-.7h-.274a.675.675,0,0,0-.679.757v3.907h-.729s-.455.047,0,.529h0l1.177,1.248h0l0,.005.011.011a.362.362,0,0,0,.559-.016h0l1.243-1.248C46.838,51.624,46.382,51.553,46.382,51.553Z" transform="translate(-31.106 -46.889)" fill="#241f20"/>
    </g>
  </g>
</svg>
