<svg xmlns="http://www.w3.org/2000/svg" xmlns:xlink="http://www.w3.org/1999/xlink" width="17.133" height="20.56" viewBox="0 0 17.133 20.56">
  <defs>
    <linearGradient id="linear-gradient" x1="0.07" y1="0.327" x2="1.028" y2="0.699" gradientUnits="objectBoundingBox">
      <stop offset="0" stop-color="#fff" stop-opacity="0.2"/>
      <stop offset="1" stop-color="#fff" stop-opacity="0"/>
    </linearGradient>
  </defs>
  <g id="_2993701_apple_brand_brands_ios_logo_icon" data-name="2993701_apple_brand_brands_ios_logo_icon" transform="translate(-2)">
    <path id="Path_3364" data-name="Path 3364" d="M15.709,11.258a4.428,4.428,0,0,1,2.6-3.974A5.562,5.562,0,0,0,14.852,6a5.509,5.509,0,0,0-2.008.42A5.018,5.018,0,0,1,11,6.809,5.018,5.018,0,0,1,9.149,6.42,5.509,5.509,0,0,0,7.141,6C6.615,6,2,6.159,2,11.663c0,4.5,3.253,8.9,5.141,8.9a5.967,5.967,0,0,0,2.408-.48A3.684,3.684,0,0,1,11,19.752a3.677,3.677,0,0,1,1.448.328,5.974,5.974,0,0,0,2.407.48c1.323,0,3.206-2.161,4.281-5A4.406,4.406,0,0,1,15.709,11.258Z" fill="#1a1a1a"/>
    <path id="XMLID_1339_" d="M12,6a6.064,6.064,0,0,0,5-6A6.063,6.063,0,0,0,12,6Z" transform="translate(-1.912)" fill="#1a1a1a"/>
    <path id="Path_3365" data-name="Path 3365" d="M7.1,6.25a4.561,4.561,0,0,1,1.991.52,4.155,4.155,0,0,0,1.832.481,4.155,4.155,0,0,0,1.832-.481,4.561,4.561,0,0,1,1.991-.52,4.889,4.889,0,0,1,3.279,1.442c.052-.033.1-.074.152-.106A4.853,4.853,0,0,0,14.744,6a4.561,4.561,0,0,0-1.991.52A4.155,4.155,0,0,1,10.921,7,4.155,4.155,0,0,1,9.089,6.52,4.561,4.561,0,0,0,7.1,6C6.576,6,2,6.2,2,13c0,.046,0,.091,0,.137C2.058,6.45,6.579,6.25,7.1,6.25Z" transform="translate(0 -1.224)" fill="#fff" opacity="0.1"/>
    <path id="Path_3366" data-name="Path 3366" d="M14.852,23.75a5.02,5.02,0,0,1-2.407-.593A3.107,3.107,0,0,0,11,22.751a3.113,3.113,0,0,0-1.448.405,5.014,5.014,0,0,1-2.408.594C5.269,23.75,2.058,18.4,2,12.888c0,.039,0,.073,0,.113,0,5.564,3.253,11,5.141,11a5.014,5.014,0,0,0,2.408-.594A3.113,3.113,0,0,1,11,23a3.107,3.107,0,0,1,1.448.406A5.02,5.02,0,0,0,14.852,24c1.323,0,3.206-2.671,4.281-6.182-.025-.008-.047-.021-.072-.029C17.972,21.189,16.147,23.75,14.852,23.75Z" transform="translate(0 -3.44)" opacity="0.2"/>
    <path id="Path_3367" data-name="Path 3367" d="M16.979.442a5.919,5.919,0,0,1-4.974,5.3c0,.087,0,.166,0,.253A6.077,6.077,0,0,0,17,.261C16.991.307,16.994.386,16.979.442Z" transform="translate(-1.911)" opacity="0.2"/>
    <path id="Path_3368" data-name="Path 3368" d="M12.005,5.734c.012-.065.026-.246.04-.356q.016-.207.045-.406C12.456,2.466,14.394.8,17,.261,17,.174,17,.088,17,0A6.068,6.068,0,0,0,12.005,5.734Z" transform="translate(-1.912)" fill="#fff" opacity="0.1"/>
    <path id="Path_3369" data-name="Path 3369" d="M15.709,10.708a4.707,4.707,0,0,1,2.6-4.209,5.363,5.363,0,0,0-3.46-1.359,5.248,5.248,0,0,0-2.008.445A4.781,4.781,0,0,1,11,6a4.781,4.781,0,0,1-1.848-.412A5.248,5.248,0,0,0,7.141,5.14c-.526,0-5.141.168-5.141,6C2,15.9,5.253,20.56,7.141,20.56a5.684,5.684,0,0,0,2.408-.509A3.514,3.514,0,0,1,11,19.7a3.508,3.508,0,0,1,1.448.348,5.691,5.691,0,0,0,2.407.508c1.323,0,3.206-2.288,4.281-5.3A4.618,4.618,0,0,1,15.709,10.708ZM14.852,0a5.194,5.194,0,0,0-4.284,5.14A5.194,5.194,0,0,0,14.852,0Z" transform="translate(0 0)" fill="url(#linear-gradient)"/>
  </g>
</svg>
