<svg xmlns="http://www.w3.org/2000/svg" xmlns:xlink="http://www.w3.org/1999/xlink" width="59.189" height="36.993" viewBox="0 0 59.189 36.993">
  <defs>
    <clipPath id="clip-path">
      <path id="Path_3729" data-name="Path 3729" d="M13.9,26.074A2.783,2.783,0,0,1,16.674,23.3h53.64a2.783,2.783,0,0,1,2.774,2.774V57.519a2.783,2.783,0,0,1-2.774,2.774H16.674A2.783,2.783,0,0,1,13.9,57.519V26.074Z" transform="translate(-13.9 -23.3)"/>
    </clipPath>
    <clipPath id="clip-path-2">
      <path id="Path_3730" data-name="Path 3730" d="M86.634,69.267H83.675c-.277,0-.509,0-.647.139-.185.092-.231.277-.231.509a.5.5,0,0,0,.37.509,2.343,2.343,0,0,0,.6.092h.879a2.75,2.75,0,0,1,1.85.555.638.638,0,0,1,.139.185V69.267Zm0,4.485a2.5,2.5,0,0,1-2.22.879H81.27v-1.48h3.144a.837.837,0,0,0,.647-.185.616.616,0,0,0,.185-.462.706.706,0,0,0-.185-.462.889.889,0,0,0-.555-.139c-1.526-.046-3.422.046-3.422-2.127A2.047,2.047,0,0,1,83.4,67.741h3.237V66.4H83.628a3.444,3.444,0,0,0-2.035.555V66.4H77.154a3.218,3.218,0,0,0-1.942.555V66.4H67.259v.555a4.206,4.206,0,0,0-2.173-.555H59.814v.555A3.915,3.915,0,0,0,57.5,66.4H51.675l-1.341,1.526-1.249-1.433H40.3v9.48h8.6l1.387-1.48,1.295,1.48H56.9v-2.22h.509a5.617,5.617,0,0,0,2.266-.324v2.543h4.393V73.521H64.3c.277,0,.277,0,.277.277v2.173H77.848a4.055,4.055,0,0,0,2.22-.6v.6h4.208a6.556,6.556,0,0,0,2.4-.416v-1.8Zm-6.52-2.728a1.856,1.856,0,0,1,.509,1.433c0,1.48-.925,2.127-2.543,2.127H74.889V73.151h3.144a.837.837,0,0,0,.647-.185.616.616,0,0,0,.185-.462.706.706,0,0,0-.185-.462.954.954,0,0,0-.6-.139c-1.526-.046-3.422.046-3.422-2.127a2.022,2.022,0,0,1,2.312-2.035h3.237v1.433H77.247c-.324,0-.509,0-.647.139-.185.092-.231.277-.231.509a.5.5,0,0,0,.37.509,2.411,2.411,0,0,0,.647.092h.879A2.9,2.9,0,0,1,80.114,71.024Zm-14.659-.416a1.5,1.5,0,0,1-.786.139H62.681V69.221h1.988a1.414,1.414,0,0,1,.786.139.587.587,0,0,1,.324.6A.621.621,0,0,1,65.455,70.608Zm1.017.832a1.808,1.808,0,0,1,.786.555,1.931,1.931,0,0,1,.277,1.249v1.341H65.918v-.832c0-.416.046-1.017-.277-1.341a1.63,1.63,0,0,0-1.2-.324H62.681v2.5H61.062V67.833h3.746a3.973,3.973,0,0,1,1.942.324,1.627,1.627,0,0,1,.832,1.526A1.8,1.8,0,0,1,66.473,71.44Zm2.035-3.607h5.41v1.433H70.126v1.249h3.7V71.9h-3.7v1.341h3.792v1.433h-5.41ZM57.548,70.978H55.421V69.267h2.127c.6,0,.971.231.971.832C58.565,70.654,58.149,70.978,57.548,70.978ZM53.8,74.03l-2.5-2.774,2.5-2.682ZM47.375,73.2H43.4V71.856h3.561V70.469H43.4V69.221h4.069l1.757,1.988Zm12.9-3.144c0,1.9-1.387,2.266-2.821,2.266H55.421v2.266H52.277l-1.988-2.266-2.081,2.266H41.78V67.833H48.3l1.988,2.22,2.081-2.22h5.179C58.843,67.833,60.276,68.2,60.276,70.053Z" transform="translate(-40.3 -66.4)"/>
    </clipPath>
    <clipPath id="clip-path-3">
      <path id="Path_3731" data-name="Path 3731" d="M20.625,46.479l-1.11-2.728-1.11,2.728Zm24.508-1.064a1.5,1.5,0,0,1-.786.139H42.359V44.028h1.988a1.414,1.414,0,0,1,.786.139.587.587,0,0,1,.324.6A.691.691,0,0,1,45.133,45.416Zm14.1,1.064-1.11-2.728-1.11,2.728ZM32.972,49.439H31.307V44.121l-2.358,5.318H27.515l-2.358-5.318v5.318H21.874l-.647-1.526H17.851L17.2,49.439H15.446l2.913-6.8h2.4l2.774,6.428V42.641h2.636L28.3,47.265l1.942-4.624h2.682v6.8Zm6.613,0h-5.41v-6.8h5.41v1.433H35.793v1.2h3.7v1.387h-3.7v1.341h3.792Zm7.676-4.994a1.9,1.9,0,0,1-1.156,1.8,1.808,1.808,0,0,1,.786.555,1.931,1.931,0,0,1,.277,1.249v1.341H45.549v-.879c0-.416.046-1.017-.277-1.341-.231-.231-.6-.277-1.2-.277H42.313v2.451H40.694V42.641H44.44a4.278,4.278,0,0,1,1.988.324A1.554,1.554,0,0,1,47.26,44.444Zm.925,4.994H49.85v-6.8H48.185Zm20.9,0H66.774l-3.1-5.087v5.087H60.347L59.7,47.913H56.37l-.6,1.526h-1.9a3.612,3.612,0,0,1-2.358-5.965,3.2,3.2,0,0,1,2.451-.786h1.572v1.433H54.012a1.525,1.525,0,0,0-1.249.416,2.221,2.221,0,0,0-.462,1.526,2.335,2.335,0,0,0,.462,1.618,1.474,1.474,0,0,0,1.11.37h.74l2.312-5.364h2.451L62.1,49.115V42.641h2.5l2.867,4.717V42.641h1.665v6.8ZM15.4,50.78h2.774l.647-1.526h1.387l.6,1.526h5.5V49.623l.509,1.156h2.821l.462-1.156V50.78H43.7v-2.5h.277c.185,0,.231.046.231.324V50.78h7.029v-.6a5.2,5.2,0,0,0,2.59.6h2.959l.647-1.526h1.387l.6,1.526H65.11V49.346l.879,1.433h4.578V41.3H66.034v1.11l-.647-1.11H60.763v1.11l-.6-1.11H53.919a5.538,5.538,0,0,0-2.728.555V41.3h-4.3v.555a2.681,2.681,0,0,0-1.85-.555H29.272l-1.064,2.451L27.145,41.3H22.151v1.11L21.6,41.3H17.342L15.4,45.785Z" transform="translate(-15.4 -41.3)"/>
    </clipPath>
  </defs>
  <g id="_1933704_american_express_amex_charge_credit_card_payment_icon" data-name="1933704_american express_amex_charge_credit card_payment_icon" transform="translate(-13.9 -23.3)">
    <g id="Group_260" data-name="Group 260" transform="translate(13.9 23.3)">
      <g id="Group_259" data-name="Group 259" transform="translate(0)">
        <g id="Group_258" data-name="Group 258" clip-path="url(#clip-path)">
          <path id="Path_3728" data-name="Path 3728" d="M13.9,26.074A2.783,2.783,0,0,1,16.674,23.3h53.64a2.783,2.783,0,0,1,2.774,2.774V57.519a2.783,2.783,0,0,1-2.774,2.774H16.674A2.783,2.783,0,0,1,13.9,57.519V26.074Z" transform="translate(-13.9 -23.3)" fill="#246ea9"/>
        </g>
      </g>
    </g>
    <g id="Group_262" data-name="Group 262" transform="translate(26.108 43.23)">
      <g id="Group_261" data-name="Group 261" clip-path="url(#clip-path-2)">
        <rect id="Rectangle_260" data-name="Rectangle 260" width="50.958" height="14.104" transform="translate(-2.312 -2.22)" fill="#fffffe"/>
      </g>
    </g>
    <g id="Group_265" data-name="Group 265" transform="translate(14.594 31.623)">
      <g id="Group_264" data-name="Group 264" transform="translate(0)">
        <g id="Group_263" data-name="Group 263" clip-path="url(#clip-path-3)">
          <rect id="Rectangle_261" data-name="Rectangle 261" width="59.744" height="14.104" transform="translate(-2.312 -2.312)" fill="#fffffe"/>
        </g>
      </g>
      <rect id="Rectangle_262" data-name="Rectangle 262" width="1.665" height="6.798" transform="translate(32.785 1.341)" fill="#246ea9"/>
    </g>
  </g>
</svg>
