<svg xmlns="http://www.w3.org/2000/svg" width="21.072" height="22.703" viewBox="0 0 21.072 22.703">
  <g id="Bell" transform="translate(-3.006 -2)">
    <g id="Path_3748" data-name="Path 3748" transform="translate(-1.891 0)" fill="none">
      <path d="M15.432,6.865a2.432,2.432,0,1,1,2.432-2.432A2.432,2.432,0,0,1,15.432,6.865Zm0-3.243a.811.811,0,1,0,.811.811A.811.811,0,0,0,15.432,3.622Z" stroke="none"/>
      <path d="M 15.43245124816895 6.864903450012207 C 14.0890417098999 6.864903450012207 13.00000095367432 5.775863647460938 13.00000095367432 4.432453632354736 C 13.00000095367432 3.089043617248535 14.0890417098999 2.000003576278687 15.43245124816895 2.000003576278687 C 16.7758617401123 2.000003576278687 17.86490058898926 3.089043617248535 17.86490058898926 4.432453632354736 C 17.86490058898926 5.775863647460938 16.7758617401123 6.864903450012207 15.43245124816895 6.864903450012207 Z M 15.43245124816895 3.621633529663086 C 14.98465156555176 3.621633529663086 14.62163162231445 3.98465371131897 14.62163162231445 4.432453632354736 C 14.62163162231445 4.880253791809082 14.98465156555176 5.243273735046387 15.43245124816895 5.243273735046387 C 15.88025093078613 5.243273735046387 16.24327087402344 4.880253791809082 16.24327087402344 4.432453632354736 C 16.24327087402344 3.98465371131897 15.88025093078613 3.621633529663086 15.43245124816895 3.621633529663086 Z" stroke="none" fill="#5f5e66"/>
    </g>
    <g id="Path_3749" data-name="Path 3749" transform="translate(-1.702 -4.162)" fill="none">
      <path d="M17.676,24H12.811a.811.811,0,0,0-.811.811v.811a3.243,3.243,0,1,0,6.487,0v-.811A.811.811,0,0,0,17.676,24Z" stroke="none"/>
      <path d="M 13.5 25.50000381469727 L 13.5 25.62163352966309 C 13.5 26.58287239074707 14.28203010559082 27.36490249633789 15.24326992034912 27.36490249633789 C 16.20450973510742 27.36490249633789 16.98653984069824 26.58287239074707 16.98653984069824 25.62163352966309 L 16.98653984069824 25.50000381469727 L 13.5 25.50000381469727 M 12.81081962585449 24.00000381469727 L 17.67572021484375 24.00000381469727 C 18.12353134155273 24.00000381469727 18.48653984069824 24.36301231384277 18.48653984069824 24.81082344055176 L 18.48653984069824 25.62163352966309 C 18.48653984069824 27.41284370422363 17.03448104858398 28.86490249633789 15.24326992034912 28.86490249633789 C 13.45206069946289 28.86490249633789 12 27.41284370422363 12 25.62163352966309 L 12 24.81082344055176 C 12 24.36301231384277 12.3630199432373 24.00000381469727 12.81081962585449 24.00000381469727 Z" stroke="none" fill="#5f5e66"/>
    </g>
    <g id="Path_3750" data-name="Path 3750" transform="translate(0 -0.757)" fill="none">
      <path d="M23.636,20.684a5.035,5.035,0,0,1-2.8-4.524V13.3a7.3,7.3,0,0,0-14.595,0V16.16a5.035,5.035,0,0,1-2.8,4.524.811.811,0,0,0,.365,1.532h19.46a.811.811,0,0,0,.365-1.532Z" stroke="none"/>
      <path d="M 5.914577007293701 20.71635627746582 L 21.16876411437988 20.71634864807129 C 20.00498580932617 19.51734352111816 19.33431816101074 17.89965057373047 19.3390941619873 16.15954780578613 L 19.3390941619873 13.2973575592041 C 19.3390941619873 10.10067749023438 16.73841285705566 7.499997138977051 13.54173374176025 7.499997138977051 C 10.34505367279053 7.499997138977051 7.744373798370361 10.10067749023438 7.744373798370361 13.2973575592041 L 7.744363784790039 16.15543746948242 C 7.749145984649658 17.89838981628418 7.078353404998779 19.51708221435547 5.914577007293701 20.71635627746582 M 3.811923742294312 22.21635627746582 C 3.438263654708862 22.21413803100586 3.114503860473633 21.95685768127441 3.027953624725342 21.59335708618164 C 2.94140362739563 21.2298469543457 3.114483833312988 20.85426712036133 3.447053670883179 20.68390655517578 C 5.165013790130615 19.83156776428223 6.2496337890625 18.07731628417969 6.244373798370361 16.15954780578613 L 6.244373798370361 13.2973575592041 C 6.244373798370361 9.26713752746582 9.511513710021973 5.999997138977051 13.54173374176025 5.999997138977051 C 17.57195281982422 5.999997138977051 20.8390941619873 9.26713752746582 20.8390941619873 13.2973575592041 L 20.8390941619873 16.15954780578613 C 20.83383369445801 18.07731628417969 21.91844367980957 19.83156776428223 23.63641357421875 20.68390655517578 C 23.96898460388184 20.85426712036133 24.14206314086914 21.2298469543457 24.05551338195801 21.59335708618164 C 23.96896362304688 21.95685768127441 23.64520454406738 22.21413803100586 23.27155303955078 22.21634674072266 L 3.811923742294312 22.21635627746582 Z" stroke="none" fill="#5f5e66"/>
    </g>
  </g>
</svg>
