<svg xmlns="http://www.w3.org/2000/svg" width="18.313" height="21.726" viewBox="0 0 18.313 21.726">
  <g id="_1" data-name="1" transform="translate(-65.59 -48)">
    <path id="Path_3972" data-name="Path 3972" d="M78.718,146.282H66.4a.811.811,0,0,1-.811-.811v-15.73a.811.811,0,0,1,.811-.811H78.718a.811.811,0,0,1,.811.811v15.73A.811.811,0,0,1,78.718,146.282ZM67.211,144.66h10.7V130.551h-10.7Z" transform="translate(0 -76.556)" fill="#5f5e66"/>
    <path id="Path_3973" data-name="Path 3973" d="M159.648,65.352h-4.374a.811.811,0,0,1,0-1.621h3.563V49.621h-10.7v3.563a.811.811,0,1,1-1.621,0V48.811a.811.811,0,0,1,.811-.811h12.318a.811.811,0,0,1,.811.811V64.541A.811.811,0,0,1,159.648,65.352Z" transform="translate(-76.556)" fill="#5f5e66"/>
  </g>
</svg>
