<svg xmlns="http://www.w3.org/2000/svg" width="24" height="22.739" viewBox="0 0 24 22.739">
  <path id="_290125_camera_image_photo_photography_video_icon" data-name="290125_camera_image_photo_photography_video_icon" d="M22.913,29.739H3.087A2.087,2.087,0,0,1,1,27.652V11.174A2.087,2.087,0,0,1,3.087,9.087h.522A1.044,1.044,0,0,1,4.652,8.043H5.7A1.044,1.044,0,0,1,6.739,9.087H7.783a1.93,1.93,0,0,0,1.043-.522L9.87,7.522A1.451,1.451,0,0,1,10.913,7h4.174a1.33,1.33,0,0,1,1.043.522l1.043,1.043a1.93,1.93,0,0,0,1.043.522h4.7A2.087,2.087,0,0,1,25,11.174V27.652A2.087,2.087,0,0,1,22.913,29.739Zm1.043-18.565a1.044,1.044,0,0,0-1.043-1.043L18.1,10.124A2.938,2.938,0,0,1,16.436,9.3L15.325,8.192l-.054-.079a.315.315,0,0,0-.184-.069H10.913a.426.426,0,0,0-.221.121l-.039.05L9.564,9.3a2.937,2.937,0,0,1-1.666.821l-2.166,0c-.013,0-.025,0-.037,0H4.652l-.021,0-1.544,0a1.044,1.044,0,0,0-1.043,1.043V27.652A1.044,1.044,0,0,0,3.087,28.7H22.913a1.044,1.044,0,0,0,1.043-1.043ZM13,25.652a5.739,5.739,0,1,1,5.739-5.739A5.739,5.739,0,0,1,13,25.652Zm0-10.435a4.7,4.7,0,1,0,4.7,4.7A4.7,4.7,0,0,0,13,15.217Zm0,7.3a2.609,2.609,0,1,1,2.609-2.609A2.608,2.608,0,0,1,13,22.522Zm0-4.174a1.565,1.565,0,1,0,1.565,1.565A1.566,1.566,0,0,0,13,18.348ZM5.7,13.261H3.609a.521.521,0,0,1-.522-.522V11.7a.522.522,0,0,1,.522-.522H5.7a.522.522,0,0,1,.522.522v1.043A.521.521,0,0,1,5.7,13.261Z" transform="translate(-1 -7)"/>
</svg>
