<svg xmlns="http://www.w3.org/2000/svg" width="26" height="30" viewBox="0 0 26 30">
  <g id="Layer_17" data-name="Layer 17" transform="translate(-3 -1)">
    <path id="Path_3677" data-name="Path 3677" d="M24,31H8a3,3,0,0,1-3-3V9A1,1,0,0,1,7,9V28a1,1,0,0,0,1,1H24a1,1,0,0,0,1-1V9a1,1,0,0,1,2,0V28a3,3,0,0,1-3,3Z" fill="#fff"/>
    <path id="Path_3678" data-name="Path 3678" d="M28,7H4A1,1,0,0,1,4,5H28a1,1,0,0,1,0,2Z" fill="#fff"/>
    <path id="Path_3679" data-name="Path 3679" d="M20,7a1,1,0,0,1-1-1V3H13V6a1,1,0,0,1-2,0V2a1,1,0,0,1,1-1h8a1,1,0,0,1,1,1V6A1,1,0,0,1,20,7Z" fill="#fff"/>
    <path id="Path_3680" data-name="Path 3680" d="M16,26a1,1,0,0,1-1-1V11a1,1,0,0,1,2,0V25A1,1,0,0,1,16,26Z" fill="#fff"/>
    <path id="Path_3681" data-name="Path 3681" d="M21,24a1,1,0,0,1-1-1V13a1,1,0,0,1,2,0V23A1,1,0,0,1,21,24Z" fill="#fff"/>
    <path id="Path_3682" data-name="Path 3682" d="M11,24a1,1,0,0,1-1-1V13a1,1,0,0,1,2,0V23A1,1,0,0,1,11,24Z" fill="#fff"/>
  </g>
</svg>
