<svg xmlns="http://www.w3.org/2000/svg" width="26.503" height="26.503" viewBox="0 0 26.503 26.503">
    <g id="_2202240_edit_gear_settings_setup_icon" data-name="2202240_edit_gear_settings_setup_icon"
        transform="translate(-0.75 -0.75)">
        <path id="Path_3878" data-name="Path 3878"
            d="M18.349,11A7.349,7.349,0,1,0,25.7,18.349,7.334,7.334,0,0,0,18.349,11Zm0,13.567a6.218,6.218,0,1,1,6.218-6.218A6.2,6.2,0,0,1,18.349,24.567Z"
            transform="translate(-4.347 -4.347)" stroke="#000" stroke-width="0.5" />
        <path id="Path_3879" data-name="Path 3879"
            d="M25.308,11.741H23.951a10.642,10.642,0,0,0-1.3-3.166l.9-1.018a1.639,1.639,0,0,0,0-2.374l-.791-.791a1.639,1.639,0,0,0-2.374,0L19.372,5.409a8.548,8.548,0,0,0-3.166-1.3V2.7A1.666,1.666,0,0,0,14.51,1H13.38a1.666,1.666,0,0,0-1.7,1.7V4.109a10.142,10.142,0,0,0-3.166,1.3l-.961-.961a1.639,1.639,0,0,0-2.374,0l-.791.791a1.639,1.639,0,0,0,0,2.374l1.018.961a9.621,9.621,0,0,0-1.3,3.166H2.7a1.666,1.666,0,0,0-1.7,1.7v1.131a1.666,1.666,0,0,0,1.7,1.7H4.109a9.1,9.1,0,0,0,1.357,3.166L4.5,20.446a1.639,1.639,0,0,0,0,2.374l.735.791a1.639,1.639,0,0,0,2.374,0l.961-1.018a9.621,9.621,0,0,0,3.166,1.3v1.413a1.666,1.666,0,0,0,1.7,1.7h1.131a1.666,1.666,0,0,0,1.7-1.7V23.951a11.3,11.3,0,0,0,3.166-1.3l.961.9a1.639,1.639,0,0,0,2.374,0l.791-.791a1.639,1.639,0,0,0,0-2.374l-.961-.961a8.548,8.548,0,0,0,1.3-3.166h1.413a1.666,1.666,0,0,0,1.7-1.7V13.436A1.666,1.666,0,0,0,25.308,11.741Zm.565,2.826a.534.534,0,0,1-.565.565H22.933l-.057.452a8.849,8.849,0,0,1-1.47,3.561l-.283.4,1.639,1.639a.546.546,0,0,1,0,.791l-.791.791a.546.546,0,0,1-.791,0l-1.639-1.583-.4.283a8.359,8.359,0,0,1-3.561,1.47l-.452.113v2.261a.534.534,0,0,1-.565.565H13.436a.534.534,0,0,1-.565-.565V22.933l-.452-.057a8.849,8.849,0,0,1-3.561-1.47l-.4-.283-1.639,1.7a.546.546,0,0,1-.791,0l-.791-.791a.546.546,0,0,1,0-.791l1.639-1.7-.283-.4a8.118,8.118,0,0,1-1.47-3.561l-.057-.452H2.7a.534.534,0,0,1-.565-.565V13.436a.534.534,0,0,1,.565-.565H5.07l.057-.452A8.849,8.849,0,0,1,6.6,8.858l.283-.4-1.7-1.639a.546.546,0,0,1,0-.791l.791-.791a.546.546,0,0,1,.791,0L8.405,6.879,8.8,6.6a7.855,7.855,0,0,1,3.561-1.47l.452-.057V2.7a.534.534,0,0,1,.565-.565H14.51a.534.534,0,0,1,.565.565V5.07l.452.057A8.849,8.849,0,0,1,19.089,6.6l.4.283,1.7-1.7a.546.546,0,0,1,.791,0l.791.791a.546.546,0,0,1,0,.791l-1.526,1.7.283.4a10.075,10.075,0,0,1,1.47,3.561l.057.452h2.261a.534.534,0,0,1,.565.565Z"
            stroke="#000" stroke-width="0.5" />
    </g>
</svg>
