<svg id="_6622836_google_social_icon" data-name="6622836_google_social_icon" xmlns="http://www.w3.org/2000/svg" width="20.608" height="20.56" viewBox="0 0 20.608 20.56">
  <path id="Path_3363" data-name="Path 3363" d="M10.28,20.56A10.28,10.28,0,0,1,10.28,0a10.2,10.2,0,0,1,8.031,3.855.5.5,0,0,1,.129.514,1.152,1.152,0,0,1-.321.45l-4.3,2.12a.689.689,0,0,1-.707-.064,4,4,0,0,0-2.763-1.157,4.562,4.562,0,0,0,0,9.124,4.211,4.211,0,0,0,3.405-1.992H10.28a.607.607,0,0,1-.642-.642V9a.607.607,0,0,1,.642-.643h9.637a.692.692,0,0,1,.643.514,2.428,2.428,0,0,1,0,.964v.45A10.31,10.31,0,0,1,10.28,20.56Z"/>
</svg>
