<svg xmlns="http://www.w3.org/2000/svg" width="18.284" height="22.87" viewBox="0 0 18.284 22.87">
  <g id="Insurance_security_approved" transform="translate(-7.559 -1.291)">
    <path id="Path_3861" data-name="Path 3861" d="M32.62,23.424a.649.649,0,0,0-.916.066l-2.562,2.958-.535-.624a.649.649,0,1,0-.986.845l1.025,1.2a.65.65,0,0,0,.491.227h0a.649.649,0,0,0,.491-.224l3.056-3.527A.649.649,0,0,0,32.62,23.424Z" transform="translate(-12.46 -13.756)"/>
    <path id="Path_3862" data-name="Path 3862" d="M25.836,7.656A1.863,1.863,0,0,0,24.27,5.878C21.721,5.42,19.3,3.184,18.082,1.893a1.907,1.907,0,0,0-1.366-.6h-.005a1.892,1.892,0,0,0-1.4.6C14.1,3.184,11.676,5.42,9.126,5.878A1.871,1.871,0,0,0,7.564,7.662a28.159,28.159,0,0,0,.462,5.594h0c1.057,5.575,3.843,9.309,8.059,10.8a1.89,1.89,0,0,0,.626.106,1.767,1.767,0,0,0,.61-.108c4.214-1.527,7-5.26,8.065-10.8h0A26.959,26.959,0,0,0,25.836,7.656Zm-13.826,5H8.944a27.474,27.474,0,0,1-.37-4.978A.85.85,0,0,1,9.3,6.873c2.835-.51,5.443-2.906,6.747-4.29a.877.877,0,0,1,.155-.131V8.1a4.71,4.71,0,0,0-4.2,4.559Zm4.7,3.516a3.4,3.4,0,1,1,1.357-6.509l.47-.543a1.584,1.584,0,0,1,1.2-.547h0a1.584,1.584,0,0,1,1.2,2.621l-.877,1.012a3.377,3.377,0,0,1-3.345,3.965Zm.506,6.84V17.454a4.714,4.714,0,0,0,4.113-3.788H24.27C23.5,17.11,21.654,21.283,17.216,23.014Z"/>
  </g>
</svg>
