<svg xmlns="http://www.w3.org/2000/svg" width="20.8" height="26" viewBox="0 0 20.8 26">
  <g id="Layer_13" data-name="Layer 13" transform="translate(-4 -1)">
    <path id="Path_3872" data-name="Path 3872" d="M22.2,28.733H6.6a2.6,2.6,0,0,1-2.6-2.6V16.6A2.6,2.6,0,0,1,6.6,14H22.2a2.6,2.6,0,0,1,2.6,2.6v9.533a2.6,2.6,0,0,1-2.6,2.6Zm-15.6-13a.867.867,0,0,0-.867.867v9.533A.867.867,0,0,0,6.6,27H22.2a.867.867,0,0,0,.867-.867V16.6a.867.867,0,0,0-.867-.867Z" transform="translate(0 -1.733)" fill="#5f5e66"/>
    <path id="Path_3873" data-name="Path 3873" d="M21.733,14H7.867A.867.867,0,0,1,7,13.133v-5.2A6.933,6.933,0,0,1,13.933,1h1.733A6.933,6.933,0,0,1,22.6,7.933v5.2A.867.867,0,0,1,21.733,14Zm-13-1.733H20.867V7.933a5.2,5.2,0,0,0-5.2-5.2H13.933a5.2,5.2,0,0,0-5.2,5.2Z" transform="translate(-0.4)" fill="#5f5e66"/>
    <path id="Path_3874" data-name="Path 3874" d="M15.733,22.467a1.733,1.733,0,1,1,1.733-1.733A1.733,1.733,0,0,1,15.733,22.467ZM15.733,20.733Z" transform="translate(-1.333 -2.4)" fill="#5f5e66"/>
    <rect id="Rectangle_811" data-name="Rectangle 811" width="2" height="4" transform="translate(13.4 19)" fill="#5f5e66"/>
  </g>
</svg>
