<svg xmlns="http://www.w3.org/2000/svg" width="46.643" height="61.219" viewBox="0 0 46.643 61.219">
  <g id="Group_5225" data-name="Group 5225" transform="translate(-8 -2)">
    <path id="Path_3929" data-name="Path 3929" d="M31.322,48.643a5.83,5.83,0,1,0-5.83-5.83A5.848,5.848,0,0,0,31.322,48.643ZM48.813,22.406H45.9v-5.83a14.576,14.576,0,1,0-29.152,0v5.83H13.83A5.848,5.848,0,0,0,8,28.237V57.389a5.848,5.848,0,0,0,5.83,5.83H48.813a5.848,5.848,0,0,0,5.83-5.83V28.237A5.848,5.848,0,0,0,48.813,22.406Zm-26.528-5.83a9.037,9.037,0,0,1,18.074,0v5.83H22.285ZM48.813,57.389H13.83V28.237H48.813Z"/>
  </g>
</svg>
