<svg xmlns="http://www.w3.org/2000/svg" width="27.988" height="27.988" viewBox="0 0 27.988 27.988">
  <g id="Group_5228" data-name="Group 5228" transform="translate(-36 -184)">
    <g id="black" transform="translate(36 184)">
      <g id="location">
        <path id="Path_3847" data-name="Path 3847" d="M13.994,27.988A13.994,13.994,0,1,0,0,13.994,13.994,13.994,0,0,0,13.994,27.988Z" fill="#a6a998"/>
      </g>
    </g>
    <g id="_352521_location_on_icon_4_" data-name="352521_location_on_icon (4)" transform="translate(34 186)">
      <path id="Path_3939" data-name="Path 3939" d="M15.6,4A5.6,5.6,0,0,0,10,9.6C10,13.8,15.6,20,15.6,20s5.6-6.2,5.6-10.4A5.6,5.6,0,0,0,15.6,4Zm0,7.6a2,2,0,1,1,2-2A2,2,0,0,1,15.6,11.6Z" fill="#fff"/>
    </g>
  </g>
</svg>
