<svg xmlns="http://www.w3.org/2000/svg" width="61.9" height="36.993" viewBox="0 0 61.9 36.993">
  <g id="Icons" transform="translate(-19.888 -22.951)">
    <g id="Group_257" data-name="Group 257" transform="translate(7.249 13.146)">
      <circle id="Ellipse_3" data-name="Ellipse 3" cx="18.497" cy="18.497" r="18.497" transform="translate(37.546 9.805)" fill="#ffc601"/>
      <circle id="Ellipse_4" data-name="Ellipse 4" cx="18.497" cy="18.497" r="18.497" transform="translate(12.639 9.805)" fill="#f43735"/>
      <path id="Path_3717" data-name="Path 3717" d="M16.584,24.507l-1.027,5.969h-1.7l1.41-8.305H17.9v4.848l.146.012.935-2.727c.215-.627.42-1.256.651-1.876.042-.114.183-.269.282-.271.84-.022,1.681-.013,2.6-.013l-1.391,8.33H19.318c.311-1.951.62-3.891.929-5.831l-.078-.02c-.064.161-.132.32-.191.483-.607,1.673-1.223,3.342-1.81,5.022-.108.308-.251.412-.56.38-.244-.025-.492,0-.8,0-.054-2.013-.108-4-.162-5.979Z" transform="translate(3.257 1.156)" fill="#fff"/>
      <path id="Path_3718" data-name="Path 3718" d="M36.217,24.424l.381-2.277h1.764q-.2,1.232-.4,2.467c-.3,1.84-.61,3.677-.895,5.519-.043.275-.149.34-.4.331-.44-.015-.88,0-1.349,0v-.51a7.242,7.242,0,0,1-.847.461,2,2,0,0,1-2.712-1.319,4.566,4.566,0,0,1,.875-4.585C33.649,23.282,34.885,23.269,36.217,24.424Zm-.447,2.225a5.964,5.964,0,0,0-.114-.73A.9.9,0,0,0,34.2,25.4a1.936,1.936,0,0,0-.542.657,3.042,3.042,0,0,0-.268,1.849.973.973,0,0,0,.654.915,1.084,1.084,0,0,0,1.193-.461A2.956,2.956,0,0,0,35.77,26.649Z" transform="translate(31.294 1.166)" fill="#fff"/>
      <path id="Path_3719" data-name="Path 3719" d="M20.757,25.3c.217-.659.016-1.015-.644-1.014-.75,0-1.5.092-2.271.145.032-.192.073-.445.116-.7.129-.764.123-.811.886-.915a8.443,8.443,0,0,1,2.091-.08A1.822,1.822,0,0,1,22.558,24.9c-.192,1.505-.407,3.008-.625,4.51-.015.105-.135.273-.213.278-.437.027-.876.013-1.335.013v-.48a7.984,7.984,0,0,1-1.3.566,1.636,1.636,0,0,1-2.127-1.527c-.183-1.69.85-2.828,2.692-2.951C20.022,25.282,20.394,25.3,20.757,25.3Zm-.191,1.43a2.083,2.083,0,0,0-1.52.209.933.933,0,0,0-.267,1.272.854.854,0,0,0,1.248-.042A1.958,1.958,0,0,0,20.565,26.733Z" transform="translate(8.159 2.051)" fill="#fff"/>
      <path id="Path_3720" data-name="Path 3720" d="M31.9,25.339c.161-.735-.006-1.014-.7-1.02-.724-.006-1.45.091-2.223.146.059-.375.12-.829.21-1.277.015-.077.145-.16.238-.19a5.232,5.232,0,0,1,2.651-.241,1.9,1.9,0,0,1,1.6,2.2c-.209,1.573-.44,3.143-.666,4.746H31.522v-.566c-.153.119-.278.221-.408.315a2.1,2.1,0,0,1-2.264.172,1.925,1.925,0,0,1-.751-2.055,2.55,2.55,0,0,1,2.667-2.229C31.137,25.321,31.51,25.339,31.9,25.339Zm-.194,1.412a2.161,2.161,0,0,0-1.513.218.819.819,0,0,0-.4.919.889.889,0,0,0,.408.548.837.837,0,0,0,.973-.25A2.152,2.152,0,0,0,31.705,26.751Z" transform="translate(25.851 2.01)" fill="#fff"/>
      <path id="Path_3721" data-name="Path 3721" d="M24.023,26.924a1.054,1.054,0,0,0,.814,1.3,3.6,3.6,0,0,0,2.039-.122c.171-.051.34-.107.579-.183-.1.556-.185,1.069-.3,1.575-.017.076-.151.157-.244.181a5.313,5.313,0,0,1-2.7.069,2.445,2.445,0,0,1-1.919-2.1,4.68,4.68,0,0,1,1-3.963,2.575,2.575,0,0,1,2.385-.98,2.436,2.436,0,0,1,2.146,3.014c-.15,1.175-.15,1.174-1.333,1.175q-1.182,0-2.363,0A.487.487,0,0,0,24.023,26.924Zm.142-1.443c.6,0,1.177.006,1.751-.008a.3.3,0,0,0,.233-.157.872.872,0,0,0-.772-1.084C24.723,24.2,24.258,24.658,24.165,25.481Z" transform="translate(16.535 2.016)" fill="#fff"/>
      <path id="Path_3722" data-name="Path 3722" d="M31.966,22.513c-.092.6-.181,1.187-.273,1.8-.375-.127-.727-.278-1.093-.365a1.946,1.946,0,0,0-2.2.855,3.844,3.844,0,0,0-.544,3.092,1.618,1.618,0,0,0,2.029,1.229c.358-.078.706-.211,1.091-.33-.092.585-.175,1.155-.281,1.722a.319.319,0,0,1-.217.2,8.635,8.635,0,0,1-1.843.155,2.743,2.743,0,0,1-2.541-2.3,6.227,6.227,0,0,1,.393-4.088A3.9,3.9,0,0,1,31.966,22.513Z" transform="translate(22.435 1.057)" fill="#fff"/>
      <path id="Path_3723" data-name="Path 3723" d="M23.9,22.831l-.214,1.508c-.371-.017-.725-.035-1.079-.048-.655-.023-1,.107-1.051.439-.088.544.368.666.721.814a2.006,2.006,0,0,1,1.247,2.636,1.752,1.752,0,0,1-1.372,1.4,6.97,6.97,0,0,1-3.116-.047c.077-.518.148-1,.216-1.462.616.057,1.2.122,1.783.158a1.174,1.174,0,0,0,.521-.1.5.5,0,0,0,.13-.872A5.007,5.007,0,0,0,20.9,26.8a1.973,1.973,0,0,1-1.159-2.282,2.027,2.027,0,0,1,1.863-1.765A6.638,6.638,0,0,1,23.9,22.831Z" transform="translate(11.49 2.016)" fill="#fff"/>
      <path id="Path_3724" data-name="Path 3724" d="M21.914,22.363H23.66l-.139.976.846.041-.207,1.606h-.918c-.11.649-.217,1.267-.321,1.887-.055.326-.1.654-.158.98-.1.6.1.819.711.789.095,0,.189-.015.338-.028-.062.454-.114.885-.187,1.313a.282.282,0,0,1-.177.193,7.18,7.18,0,0,1-1.548.128A1.1,1.1,0,0,1,20.931,29a20.127,20.127,0,0,1,.255-2.3C21.411,25.256,21.668,23.819,21.914,22.363Z" transform="translate(14.504 1.51)" fill="#fff"/>
      <path id="Path_3725" data-name="Path 3725" d="M31.983,29.644H30.152l1.114-6.821H32.92c-.036.269-.071.525-.116.866.477-.529.879-1.084,1.654-.96l-.636,2c-.591.019-.845.155-1.016.793-.245.917-.406,1.856-.593,2.788C32.123,28.756,32.058,29.2,31.983,29.644Z" transform="translate(29.167 2.063)" fill="#fff"/>
      <path id="Path_3726" data-name="Path 3726" d="M26.186,29.652H24.357c.141-.884.276-1.75.417-2.614.213-1.308.437-2.614.64-3.923.037-.237.11-.335.361-.325.439.018.879.005,1.35.005-.041.3-.076.559-.122.9.479-.534.883-1.09,1.659-.964l-.639,2.005c-.575.009-.84.145-1.005.759-.25.93-.414,1.883-.6,2.828C26.326,28.753,26.264,29.189,26.186,29.652Z" transform="translate(19.954 2.063)" fill="#fff"/>
      <path id="Path_3727" data-name="Path 3727" d="M12.851,26.562h.308c-.068-.193-.149-.378-.211-.574Z" transform="translate(1.657 7.273)" fill="#fff"/>
    </g>
  </g>
</svg>
