<svg xmlns="http://www.w3.org/2000/svg" width="19.764" height="21" viewBox="0 0 19.764 21">
  <path id="_216296_map_icon" data-name="216296_map_icon" d="M24,3.094a1.236,1.236,0,0,0-1.346.268L17.879,8.139,12.566,3.888a1.238,1.238,0,0,0-1.645.091L5.362,9.538A1.23,1.23,0,0,0,5,10.412V22.765a1.234,1.234,0,0,0,.762,1.141A1.2,1.2,0,0,0,6.235,24a1.236,1.236,0,0,0,.873-.362l4.777-4.777L17.2,23.112a1.241,1.241,0,0,0,1.645-.091L24.4,17.461a1.23,1.23,0,0,0,.362-.873V4.235A1.234,1.234,0,0,0,24,3.094ZM7.471,19.783V10.923l3.706-3.706v8.943C11.09,16.214,7.471,19.783,7.471,19.783Zm5.1-3.542a1.245,1.245,0,0,0-.154-.084V6.931s4.89,3.882,4.941,3.911v9.231Zm9.728-.164-3.706,3.706V10.844c.086-.053,3.706-3.627,3.706-3.627Z" transform="translate(-5 -3)" fill="#9d9999"/>
</svg>
