<svg xmlns="http://www.w3.org/2000/svg" width="26.002" height="26.002" viewBox="0 0 26.002 26.002">
  <g id="Group_5192" data-name="Group 5192" transform="translate(-27 -348)">
    <path id="_9096082_ramadhan_date_event_calender_icon" data-name="9096082_ramadhan_date_event_calender_icon" d="M24.968,5.9H18.034V5.034a.867.867,0,0,0-1.733,0V5.9H9.367V5.034a.867.867,0,0,0-1.734,0V5.9H6.783A2.616,2.616,0,0,0,4.167,8.517V27.553a2.616,2.616,0,0,0,2.616,2.616H27.553a2.616,2.616,0,0,0,2.616-2.616V8.517A2.616,2.616,0,0,0,27.553,5.9H26.7V5.034a.867.867,0,0,0-1.733,0V5.9Zm3.467,6.067V27.553a.883.883,0,0,1-.883.883H6.783a.883.883,0,0,1-.883-.883V11.968H28.435ZM17.168,13.7ZM26.7,7.634V8.5a.867.867,0,1,1-1.733,0V7.634H18.034V8.5a.867.867,0,1,1-1.733,0V7.634H9.367V8.5a.867.867,0,1,1-1.734,0V7.634H6.783a.883.883,0,0,0-.883.883v1.717H28.435V8.517a.883.883,0,0,0-.883-.883Z" transform="translate(22.833 343.833)"/>
    <path id="_8541612_check_tick_mark_icon_2_" data-name="8541612_check_tick_mark_icon (2)" d="M4.769,75.364.206,70.8a.7.7,0,0,1,0-.993l.993-.993a.7.7,0,0,1,.993,0l3.074,3.074L11.851,65.3a.7.7,0,0,1,.993,0l.993.993a.7.7,0,0,1,0,.993L5.762,75.364a.7.7,0,0,1-.993,0Z" transform="translate(33 293.431)"/>
  </g>
</svg>
