<svg id="_2639916_services_icon" data-name="2639916_services_icon" xmlns="http://www.w3.org/2000/svg" width="61" height="61" viewBox="0 0 61 61">
  <circle id="Ellipse_496" data-name="Ellipse 496" cx="2" cy="2" r="2" transform="translate(38.365 18.635)"/>
  <g id="Group_5226" data-name="Group 5226" transform="translate(0 19.933)">
    <path id="Path_3932" data-name="Path 3932" d="M24.267,28.533A3.733,3.733,0,1,1,20.533,24.8,3.732,3.732,0,0,1,24.267,28.533Zm16.8-.625v1.251a.931.931,0,0,1-.762.917l-1.844.345a1.9,1.9,0,0,0-1.488,1.523,16.482,16.482,0,0,1-.493,1.87,1.9,1.9,0,0,0,.53,2.053l1.417,1.215a.932.932,0,0,1,.2,1.176L38,39.341a.934.934,0,0,1-1.118.414L35.1,39.13a1.9,1.9,0,0,0-2.046.569A17.065,17.065,0,0,1,31.7,41.062a1.9,1.9,0,0,0-.569,2.046l.625,1.779a.932.932,0,0,1-.414,1.118l-1.083.625a.937.937,0,0,1-1.176-.2l-1.215-1.417a1.9,1.9,0,0,0-2.053-.53,16.38,16.38,0,0,1-1.87.493,1.9,1.9,0,0,0-1.523,1.488l-.345,1.844a.924.924,0,0,1-.913.758H19.908a.931.931,0,0,1-.917-.762l-.345-1.844a1.9,1.9,0,0,0-1.523-1.488,16.482,16.482,0,0,1-1.87-.493,1.9,1.9,0,0,0-2.053.53l-1.215,1.417a.932.932,0,0,1-1.176.2L9.725,46a.934.934,0,0,1-.414-1.118L9.936,43.1a1.9,1.9,0,0,0-.569-2.046A17.065,17.065,0,0,1,8,39.7a1.9,1.9,0,0,0-2.046-.569l-1.777.629a.932.932,0,0,1-1.118-.414l-.625-1.083a.937.937,0,0,1,.2-1.176l1.417-1.215a1.9,1.9,0,0,0,.53-2.053,16.38,16.38,0,0,1-.493-1.87A1.9,1.9,0,0,0,2.6,30.421L.76,30.075A.931.931,0,0,1,0,29.159V27.908a.931.931,0,0,1,.762-.917l1.844-.345a1.9,1.9,0,0,0,1.488-1.523,16.483,16.483,0,0,1,.493-1.87,1.9,1.9,0,0,0-.53-2.053L2.639,19.984a.932.932,0,0,1-.2-1.176l.625-1.083a.934.934,0,0,1,1.118-.414l1.779.625a1.9,1.9,0,0,0,2.046-.569A17.065,17.065,0,0,1,9.371,16a1.9,1.9,0,0,0,.569-2.046l-.629-1.777a.932.932,0,0,1,.414-1.118l1.083-.625a.937.937,0,0,1,1.176.2L13.2,12.054a1.9,1.9,0,0,0,2.053.53,16.482,16.482,0,0,1,1.87-.493A1.9,1.9,0,0,0,18.646,10.6l.345-1.844A.931.931,0,0,1,19.908,8h1.251a.931.931,0,0,1,.917.762l.345,1.844a1.9,1.9,0,0,0,1.523,1.488,16.483,16.483,0,0,1,1.87.493,1.9,1.9,0,0,0,2.053-.53l1.215-1.417a.932.932,0,0,1,1.176-.2l1.083.625a.934.934,0,0,1,.414,1.118L31.13,13.96a1.9,1.9,0,0,0,.569,2.046,17.065,17.065,0,0,1,1.363,1.363,1.9,1.9,0,0,0,2.046.569l1.779-.625a.932.932,0,0,1,1.118.414l.625,1.083a.937.937,0,0,1-.2,1.176L37.014,21.2a1.9,1.9,0,0,0-.53,2.053,16.483,16.483,0,0,1,.493,1.87,1.9,1.9,0,0,0,1.488,1.523l1.844.345A.928.928,0,0,1,41.067,27.908Zm-9.333.625a11.2,11.2,0,1,0-11.2,11.2A11.2,11.2,0,0,0,31.733,28.533Z" transform="translate(0 -8)"/>
  </g>
  <path id="Path_3933" data-name="Path 3933" d="M45.614,17.125l-2.2-.413a1.414,1.414,0,0,1-1.113-1.127,14.935,14.935,0,0,0-.413-1.559,1.415,1.415,0,0,1,.4-1.527l1.691-1.449a.932.932,0,0,0,.2-1.176l-.625-1.083a.934.934,0,0,0-1.118-.414l-2.106.741A1.413,1.413,0,0,1,38.814,8.7,14.991,14.991,0,0,0,37.671,7.56a1.413,1.413,0,0,1-.416-1.523L38,3.931a.932.932,0,0,0-.414-1.118L36.5,2.188a.937.937,0,0,0-1.176.2l-1.45,1.691a1.415,1.415,0,0,1-1.527.4,14.935,14.935,0,0,0-1.559-.413A1.419,1.419,0,0,1,29.66,2.955L29.247.76A.924.924,0,0,0,28.334,0H27.084a.931.931,0,0,0-.917.762l-.413,2.2a1.414,1.414,0,0,1-1.127,1.113,14.935,14.935,0,0,0-1.559.413,1.415,1.415,0,0,1-1.527-.4L20.093,2.389a.932.932,0,0,0-1.176-.2l-1.083.625a.934.934,0,0,0-.414,1.118l.741,2.106a1.413,1.413,0,0,1-.416,1.523A14.992,14.992,0,0,0,16.6,8.7a1.413,1.413,0,0,1-1.523.416l-2.106-.741a.932.932,0,0,0-1.118.414L11.23,9.877a.937.937,0,0,0,.2,1.176l.183.157a4.663,4.663,0,0,1,4.506,3.8l.112.594.39-.457a4.653,4.653,0,0,1,3.3-1.607A9.328,9.328,0,1,1,32.84,26.453a4.644,4.644,0,0,1-1.605,3.3l-.459.392.594.112a4.663,4.663,0,0,1,3.8,4.506l.157.183a.932.932,0,0,0,1.176.2l1.083-.625A.934.934,0,0,0,38,33.4l-.741-2.106a1.413,1.413,0,0,1,.416-1.523,14.992,14.992,0,0,0,1.142-1.142,1.413,1.413,0,0,1,1.523-.416l2.106.741a.932.932,0,0,0,1.118-.414l.625-1.083a.937.937,0,0,0-.2-1.176L42.3,24.829a1.415,1.415,0,0,1-.4-1.527,14.937,14.937,0,0,0,.413-1.559,1.419,1.419,0,0,1,1.113-1.127l2.2-.413a.92.92,0,0,0,.762-.911V18.041A.931.931,0,0,0,45.614,17.125Z" transform="translate(14.624)"/>
</svg>
