<svg id="_751082_parking_car_packing_sign_vehicle_icon" data-name="751082_parking_car_packing_sign_vehicle_icon" xmlns="http://www.w3.org/2000/svg" width="23.618" height="23.082" viewBox="0 0 23.618 23.082">
  <path id="Path_3855" data-name="Path 3855" d="M13.842,52.733" transform="translate(-8.747 -33.526)" fill="#241f20"/>
  <g id="Group_5183" data-name="Group 5183" transform="translate(15.24 13.494)">
    <path id="Path_3856" data-name="Path 3856" d="M43.213,37.282a1.933,1.933,0,1,0,1.933,1.933A1.933,1.933,0,0,0,43.213,37.282Zm0,2.786a.854.854,0,1,1,.853-.854A.854.854,0,0,1,43.213,40.068Z" transform="translate(-41.28 -37.282)" fill="#241f20"/>
  </g>
  <g id="Group_5184" data-name="Group 5184" transform="translate(2.274 13.494)">
    <path id="Path_3857" data-name="Path 3857" d="M8.146,37.282a1.933,1.933,0,1,0,1.933,1.933A1.933,1.933,0,0,0,8.146,37.282Zm0,2.786A.854.854,0,1,1,9,39.215.854.854,0,0,1,8.146,40.068Z" transform="translate(-6.213 -37.282)" fill="#241f20"/>
  </g>
  <g id="Group_5186" data-name="Group 5186" transform="translate(12.916)">
    <path id="Path_3858" data-name="Path 3858" d="M44.535.788H36.156a1.13,1.13,0,0,0-1.161,1.1V9.8a1.131,1.131,0,0,0,1.161,1.1h8.379A1.131,1.131,0,0,0,45.7,9.8V1.884A1.13,1.13,0,0,0,44.535.788Zm-.016,8.158a.885.885,0,0,1-.911.857H37.039a.885.885,0,0,1-.911-.857V2.769a.885.885,0,0,1,.911-.856h6.569a.885.885,0,0,1,.911.856V8.946Z" transform="translate(-34.995 -0.788)" fill="#241f20"/>
    <g id="Group_5185" data-name="Group 5185" transform="translate(3.458 2.285)">
      <path id="Path_3859" data-name="Path 3859" d="M44.346,7.084a10.373,10.373,0,0,1,1.718-.117,2.7,2.7,0,0,1,1.719.45,1.644,1.644,0,0,1,.6,1.3,1.8,1.8,0,0,1-.517,1.334,2.61,2.61,0,0,1-1.827.592,3.276,3.276,0,0,1-.433-.024v2.01H44.346V7.084Zm1.259,2.553a1.956,1.956,0,0,0,.425.033c.676,0,1.093-.342,1.093-.917,0-.517-.359-.826-.993-.826a2.149,2.149,0,0,0-.525.05v1.66Z" transform="translate(-44.346 -6.967)" fill="#241f20"/>
    </g>
  </g>
  <path id="Path_3860" data-name="Path 3860" d="M20.294,17.765H2.3l3.733-6.45s.135-.264.765-.264h3.863s.917.062.883-.573a.567.567,0,0,0-.619-.568H5.788s-.242.011-.506.467c-.236.405-3.537,6.124-4.273,7.405a1.232,1.232,0,0,0-.945,1.254V24.89a1.2,1.2,0,0,0,1.119,1.271H2.3v2.806a.576.576,0,0,0,.506.629h1.8a.58.58,0,0,0,.506-.629V26.161H16.387v2.828a.577.577,0,0,0,.5.63H18.67a.577.577,0,0,0,.5-.63V26.161h1.124a1.2,1.2,0,0,0,1.119-1.271V19.036A1.2,1.2,0,0,0,20.294,17.765Zm-.005,6.353a.958.958,0,0,1-.995.923H2.273a.959.959,0,0,1-1-.923V19.88a.962.962,0,0,1,1-.923H19.294a.962.962,0,0,1,.995.923v4.239Z" transform="translate(-0.063 -6.537)" fill="#241f20"/>
</svg>
