<svg xmlns="http://www.w3.org/2000/svg" width="19.498" height="19.311" viewBox="0 0 19.498 19.311">
  <g id="Page-1" transform="translate(0)">
    <g id="_020---Star" data-name="020---Star">
      <path id="Shape" d="M11.78,20.437a2.6,2.6,0,0,0-.7-2.238L7.07,14.107l5.466-.832a2.537,2.537,0,0,0,1.909-1.433L16.819,6.8l2.373,5.039a2.538,2.538,0,0,0,1.91,1.434l5.466.832L22.561,18.2a2.6,2.6,0,0,0-.7,2.238l.929,5.675-4.76-2.622a2.5,2.5,0,0,0-2.416,0l-4.76,2.622Z" transform="translate(-7.07 -6.802)" fill="#f1c40f"/>
    </g>
  </g>
</svg>
