<svg xmlns="http://www.w3.org/2000/svg" width="58.827" height="36.794" viewBox="0 0 58.827 36.794">
  <g id="_2593673_pay_union_icon" data-name="2593673_pay_union_icon" transform="translate(-82.444 -82.438)">
    <path id="Path_3733" data-name="Path 3733" d="M93.963,82.438h14.683a2.858,2.858,0,0,1,2.846,3.724l-6.835,29.347a4.981,4.981,0,0,1-4.583,3.723H85.39a2.855,2.855,0,0,1-2.845-3.723l6.837-29.347A4.975,4.975,0,0,1,93.963,82.438Z" fill="#ed1c24"/>
    <path id="Path_3734" data-name="Path 3734" d="M311.73,82.438h14.682a2.856,2.856,0,0,1,2.845,3.724l-6.837,29.347a4.979,4.979,0,0,1-4.585,3.723h-14.68a2.855,2.855,0,0,1-2.845-3.723l6.835-29.347A4.982,4.982,0,0,1,311.73,82.438Z" transform="translate(-204.303)" fill="#00569e"/>
    <path id="Path_3735" data-name="Path 3735" d="M574.012,82.438h14.681a2.856,2.856,0,0,1,2.845,3.724L584.7,115.509a4.981,4.981,0,0,1-4.585,3.723H565.435a2.855,2.855,0,0,1-2.844-3.723l6.834-29.347A4.982,4.982,0,0,1,574.012,82.438Z" transform="translate(-450.368)" fill="#00898e"/>
    <path id="Path_3736" data-name="Path 3736" d="M680.512,414.473l-1.386,5.92h.479l-.29,1.229h-.479l-.088.375h-1.7l.088-.375h-3.459l.271-1.133.352-.005,1.407-6.01.28-1.215h1.738l-.137.616a2.934,2.934,0,0,1,.868-.449c.432-.113,2.948-.157,2.948-.157l-.292,1.205Zm-3.062,0-.355,1.515a6.625,6.625,0,0,1,.776-.309,4.66,4.66,0,0,1,.7-.1l.256-1.1Zm-.533,2.269-.368,1.57a5.334,5.334,0,0,1,.787-.345,5.875,5.875,0,0,1,.7-.122l.262-1.1Zm-.857,3.669h1.384l.312-1.333h-1.384Z" transform="translate(-554.681 -310.369)" fill="#fff" fill-rule="evenodd"/>
    <path id="Path_3737" data-name="Path 3737" d="M800.18,413.454h1.852l.022.689c-.011.112.088.168.305.172h.311l-.279,1.141h-1c-.868.062-1.2-.312-1.175-.729Z" transform="translate(-673.365 -310.553)" fill="#fff" fill-rule="evenodd"/>
    <path id="Path_3738" data-name="Path 3738" d="M766.2,454.089h-1.768l.236-1.016h2.017l.226-.93h-1.994l.268-1.142h5.548l-.271,1.142H768.6l-.225.93h1.865L770,454.089h-2.015l-.333.429h.819l.29,1.28a.6.6,0,0,0,.079.261,1.057,1.057,0,0,0,.434.068h.247l-.292,1.249h-.63c-.1,0-.243,0-.44-.022a1.307,1.307,0,0,1-.466-.185.672.672,0,0,1-.361-.436l-.282-1.276-.829,1.261a1.465,1.465,0,0,1-1.306.694h-1.289l.26-1.107h.494a.772.772,0,0,0,.354-.1.554.554,0,0,0,.258-.225Z" transform="translate(-639.066 -345.778)" fill="#fff" fill-rule="evenodd"/>
    <path id="Path_3739" data-name="Path 3739" d="M477.4,455.988h4.677l-.268,1.117h-1.878l-.229.952h1.909l-.277,1.156h-1.909l-.37,1.541c-.043.173.467.2.652.2l.948-.127-.3,1.27h-2.158a1.877,1.877,0,0,1-.494-.067.55.55,0,0,1-.359-.251.5.5,0,0,1-.147-.494l.492-2.05h-1.064l.283-1.175h1.066l.226-.952h-1.061Z" transform="translate(-369.805 -350.457)" fill="#fff" fill-rule="evenodd"/>
    <path id="Path_3740" data-name="Path 3740" d="M488.825,413.849h1.921l-.279,1.164h-2.622l-.271.25c-.111.116-.159.067-.31.15a1.8,1.8,0,0,1-.852.223h-.84l.269-1.122h.252a.881.881,0,0,0,.432-.067.92.92,0,0,0,.259-.362l.427-.876h1.911Z" transform="translate(-378.206 -310.322)" fill="#fff" fill-rule="evenodd"/>
    <path id="Path_3741" data-name="Path 3741" d="M552.709,413.319h1.637l-.189.825a4.073,4.073,0,0,1,.846-.552,7.411,7.411,0,0,1,1.16-.258l2.643-.017-.713,3a3.448,3.448,0,0,1-.376,1,1.1,1.1,0,0,1-.423.412,1.663,1.663,0,0,1-.6.2c-.178.015-.445.021-.815.025H553.33l-.569,2.378c-.058.235-.082.346-.035.408a.321.321,0,0,0,.253.123l1.115-.108-.3,1.3h-1.261c-.4,0-.692-.005-.894-.024a1,1,0,0,1-.537-.108c-.127-.1-.312-.234-.316-.374a4.161,4.161,0,0,1,.107-.636Zm3.661,3.038h-2.679l-.131.539h2.321a1.833,1.833,0,0,1,.352,0Zm-2.563-.488a2.8,2.8,0,0,1,1.382-.636c.2-.037,1.48-.026,1.48-.026l.152-.642h-2.7Z" transform="translate(-439.387 -310.424)" fill="#fff" fill-rule="evenodd"/>
    <path id="Path_3742" data-name="Path 3742" d="M607.34,491.8l-.1.723a.97.97,0,0,1-.258.541,1.114,1.114,0,0,1-.862.31l-.9.035.039.814c.007.236.065.212.1.249a.274.274,0,0,0,.125.068l.288-.011.859-.053-.282,1.2h-.992a3.393,3.393,0,0,1-1.394-.148.491.491,0,0,1-.215-.469l-.133-3.183H605.2l.019.651h.381a.53.53,0,0,0,.273-.047.3.3,0,0,0,.1-.169l.12-.506Z" transform="translate(-488.95 -384.06)" fill="#fff" fill-rule="evenodd"/>
    <path id="Path_3743" data-name="Path 3743" d="M196,233.981c-.056.263-1.076,4.962-1.079,4.964a3.476,3.476,0,0,1-.917,2.069,1.67,1.67,0,0,1-1.085.375,1.007,1.007,0,0,1-1.128-.965l-.013-.214s.2-1.274.206-1.28,1.072-4.284,1.261-4.853a.594.594,0,0,1,.017-.067,14.389,14.389,0,0,1-2.479-.03c-.011.045-.067.312-.067.312l-1.091,4.831-.095.409-.179,1.337a1.94,1.94,0,0,0,.234.995c.5.872,1.916,1,2.718,1a5.358,5.358,0,0,0,2.66-.62,3.98,3.98,0,0,0,1.7-2.661l.123-.479s1.1-4.452,1.291-5.031c.006-.031.011-.046.015-.066A14.952,14.952,0,0,1,196,233.981Z" transform="translate(-100.301 -142.173)" fill="#fff"/>
    <path id="Path_3744" data-name="Path 3744" d="M321.432,296.926c-.741-.008-1-.008-1.861.03l-.035-.058c.075-.333.159-.655.234-.988l.1-.446c.161-.7.318-1.51.335-1.759.017-.15.064-.522-.359-.522a1.445,1.445,0,0,0-.559.172c-.1.37-.314,1.416-.412,1.891-.213,1.007-.228,1.121-.322,1.614l-.063.066c-.76-.008-1.025-.008-1.9.03l-.041-.066c.146-.6.292-1.2.43-1.8a25.448,25.448,0,0,0,.556-3.049l.069-.058c.855-.114,1.059-.142,1.987-.332l.075.085-.14.522c.155-.095.307-.189.469-.275a2.968,2.968,0,0,1,1.184-.275,1.007,1.007,0,0,1,1.033.58c.178.417.06.93-.172,1.947l-.118.514c-.239,1.13-.277,1.339-.406,2.108Z" transform="translate(-219.638 -196.283)" fill="#fff"/>
    <path id="Path_3745" data-name="Path 3745" d="M413.287,313.93c-.447,0-.733-.006-1.012,0s-.548.014-.963.033l-.024-.034-.026-.032a5.5,5.5,0,0,1,.23-.731,5.174,5.174,0,0,0,.208-.737c.129-.562.208-.961.266-1.3s.095-.624.135-.952l.034-.028.037-.03c.443-.061.724-.1,1.01-.148s.58-.1,1.042-.185l.03.077c-.086.351-.172.7-.256,1.056s-.165.7-.247,1.056c-.167.743-.232,1.025-.27,1.216s-.05.294-.114.679l-.041.034Z" transform="translate(-308.491 -213.287)" fill="#fff"/>
    <path id="Path_3746" data-name="Path 3746" d="M471.043,295.674c.26-1.138.062-1.668-.193-1.992a2.173,2.173,0,0,0-1.769-.653,3.242,3.242,0,0,0-2.219.778,3.627,3.627,0,0,0-.986,1.914c-.159.693-.344,1.954.8,2.408a3.4,3.4,0,0,0,1.2.2,3.117,3.117,0,0,0,2.358-.929A4.083,4.083,0,0,0,471.043,295.674Zm-1.928-.085a4.025,4.025,0,0,1-.438,1.213.7.7,0,0,1-.55.352c-.058,0-.423,0-.432-.541a3.632,3.632,0,0,1,.118-.844c.2-.854.426-1.574,1.01-1.574C469.284,294.2,469.312,294.727,469.114,295.589Z" transform="translate(-359.616 -197.573)" fill="#fff"/>
    <path id="Path_3747" data-name="Path 3747" d="M767.748,297.771a1.015,1.015,0,0,1-.718.349c-.058,0-.423,0-.432-.537a3.562,3.562,0,0,1,.118-.838c.2-.847.425-1.562,1.01-1.562.38,0,.565.373.514.98-.03.136-.056.26-.093.421-.062.265-.135.524-.2.787A1.743,1.743,0,0,1,767.748,297.771Zm2.922-3.8c-.924.168-1.167.206-2.052.329l-.069.056c-.011.075-.019.144-.03.216a1.251,1.251,0,0,0-.643-.543,2.468,2.468,0,0,0-2.112.771,3.6,3.6,0,0,0-.986,1.9c-.159.688-.344,1.94.8,2.391a2.273,2.273,0,0,0,1.023.178,1.7,1.7,0,0,0,.978-.456c-.028.107-.054.216-.082.323l.052.067c.827-.039,1.081-.039,1.972-.028l.082-.067c.129-.763.254-1.506.593-2.974.161-.7.331-1.394.5-2.09Z" transform="translate(-640.041 -198.452)" fill="#fff"/>
    <path id="Path_3748" data-name="Path 3748" d="M558.892,296.926c-.741-.008-.995-.008-1.861.03L557,296.9c.077-.333.159-.655.236-.988l.1-.446c.161-.7.318-1.51.337-1.759.015-.15.062-.522-.361-.522a1.448,1.448,0,0,0-.556.172c-.1.37-.313,1.416-.414,1.891-.21,1.007-.228,1.121-.322,1.614l-.062.066c-.759-.008-1.023-.008-1.9.03l-.041-.066c.146-.6.292-1.2.43-1.8a25.83,25.83,0,0,0,.556-3.049l.069-.058c.853-.114,1.059-.142,1.985-.332l.075.085-.137.522c.152-.095.307-.189.466-.275a2.97,2.97,0,0,1,1.184-.275,1.012,1.012,0,0,1,1.036.58c.176.417.058.93-.174,1.947l-.116.514c-.241,1.13-.279,1.339-.408,2.108Z" transform="translate(-442.42 -196.283)" fill="#fff"/>
    <path id="Path_3749" data-name="Path 3749" d="M658.53,236.476a1.951,1.951,0,0,1-1,1.323,3.18,3.18,0,0,1-1.412.22h-.333l.03-.134s.606-2.645.6-2.636l.017-.134.013-.106.241.024s1.252.112,1.285.118A1.038,1.038,0,0,1,658.53,236.476Zm-.8-2.763-.615.013c-1.6.016-2.237.012-2.5-.021-.024.114-.067.323-.067.324s-.57,2.651-.57,2.653-1.368,5.638-1.433,5.9c1.392-.02,1.966-.021,2.2.006.056-.266.38-1.837.383-1.84s.277-1.157.294-1.193a.621.621,0,0,1,.174-.17h.125a5.91,5.91,0,0,0,3.625-.784,3.846,3.846,0,0,0,1.439-2.286,3.589,3.589,0,0,0,.1-.8,1.7,1.7,0,0,0-.288-1.023C660.058,233.736,658.981,233.726,657.731,233.713Z" transform="translate(-534.858 -141.915)" fill="#fff"/>
    <path id="Path_3750" data-name="Path 3750" d="M428.1,285.5c.488-.336.55-.808.135-1.053a1.686,1.686,0,0,0-1.635.17c-.492.34-.55.811-.138,1.055A1.681,1.681,0,0,0,428.1,285.5Z" transform="translate(-322.49 -189.385)" fill="#fff"/>
    <path id="Path_3751" data-name="Path 3751" d="M848.981,292.555l-.073-.084c-.909.188-1.074.217-1.91.329l-.067.057-.006.042,0-.011c-.627,1.442-.606,1.13-1.113,2.26,0-.052,0-.09-.007-.139l-.127-2.455-.078-.084c-.956.188-.979.217-1.86.329l-.071.057c0,.034-.008.066-.013.1l.009.008a13.33,13.33,0,0,1,.193,1.33c.049.434.118.876.167,1.309.09.715.137,1.078.243,2.17-.6.988-.737,1.36-1.3,2.226v0l-.406.642a.311.311,0,0,1-.144.133.7.7,0,0,1-.269.039h-.309l-.258,1.156,1.152-.017a1.441,1.441,0,0,0,1.321-.752l.7-1.23Z" transform="translate(-712.201 -197.049)" fill="#fff" fill-rule="evenodd"/>
  </g>
</svg>
