<svg xmlns="http://www.w3.org/2000/svg" width="46.687" height="61.276" viewBox="0 0 46.687 61.276">
  <g id="_3669337_lock_open_ic_icon" data-name="3669337_lock_open_ic_icon" transform="translate(-8 -2)">
    <path id="Path_3931" data-name="Path 3931" d="M31.343,48.687a5.836,5.836,0,1,0-5.836-5.836A5.834,5.834,0,0,0,31.343,48.687ZM48.851,22.425H45.933V16.59a14.59,14.59,0,1,0-29.179,0H22.3a9.046,9.046,0,0,1,18.091,0v5.836H13.836A5.834,5.834,0,0,0,8,28.261V57.441a5.834,5.834,0,0,0,5.836,5.836H48.851a5.834,5.834,0,0,0,5.836-5.836V28.261A5.834,5.834,0,0,0,48.851,22.425Zm0,35.015H13.836V28.261H48.851Z"/>
  </g>
</svg>
