<svg xmlns="http://www.w3.org/2000/svg" width="86.482" height="28" viewBox="0 0 86.482 28">
  <g id="_294654_visa_icon" data-name="294654_visa_icon" transform="translate(-25.009 -181.864)">
    <g id="形状_1_3_" transform="translate(32.567 181.864)">
      <g id="形状_1" transform="translate(0 0)">
        <g id="Group_254" data-name="Group 254">
          <path id="Path_3713" data-name="Path 3713" d="M92.694,182.348l-4.4,27.05h7.042l4.4-27.05Zm-10.327,0-6.714,18.6-.794-4.006h0l-.175-.9a22.432,22.432,0,0,0-6.248-7.92,28.172,28.172,0,0,0-3.133-2.168l6.1,23.437h7.337l11.2-27.05Zm27.484,7.51c0-3.058,6.858-2.665,9.872-1l1-5.81a20.328,20.328,0,0,0-6.334-1.179c-3.495,0-11.794,1.528-11.794,8.955,0,6.989,9.741,7.076,9.741,10.745s-8.736,3.014-11.619.7l-1.048,6.072a19.726,19.726,0,0,0,7.95,1.528c4.805,0,12.056-2.489,12.056-9.261C119.68,193.57,109.852,192.915,109.852,189.858Zm28.737-7.51h-5.662a3.236,3.236,0,0,0-3.251,2.016l-10.5,25.034h7.34l1.468-4.018h8.953l.826,4.018h6.466Zm-8.577,17.482,3.7-10.123,2.082,10.123Z" transform="translate(-65.303 -181.864)" fill="#005bac" fill-rule="evenodd"/>
        </g>
      </g>
    </g>
    <g id="形状_1_2_" transform="translate(25.009 182.454)">
      <g id="形状_1_1_" transform="translate(0)">
        <g id="Group_255" data-name="Group 255">
          <path id="Path_3714" data-name="Path 3714" d="M39.851,187.448s-.292-2.441-3.4-2.441H25.141l-.132.459a28.015,28.015,0,0,1,10.648,5.258,21.126,21.126,0,0,1,6.608,8.912Z" transform="translate(-25.009 -185.007)" fill="#f6ac1d" fill-rule="evenodd"/>
        </g>
      </g>
    </g>
  </g>
</svg>
