<svg xmlns="http://www.w3.org/2000/svg" width="24.132" height="26" viewBox="0 0 24.132 26">
  <g id="Bell" transform="translate(-3.006 -2)">
    <path id="Path_3748" data-name="Path 3748" d="M15.786,7.571a2.786,2.786,0,1,1,2.786-2.786A2.786,2.786,0,0,1,15.786,7.571Zm0-3.714a.929.929,0,1,0,.929.929A.929.929,0,0,0,15.786,3.857Z" transform="translate(-0.714)" fill="#fff"/>
    <path id="Path_3749" data-name="Path 3749" d="M18.5,24H12.929a.929.929,0,0,0-.929.929v.929a3.714,3.714,0,1,0,7.429,0v-.929A.929.929,0,0,0,18.5,24Z" transform="translate(-0.642 -1.571)" fill="#fff"/>
    <path id="Path_3750" data-name="Path 3750" d="M26.633,22.816a5.766,5.766,0,0,1-3.2-5.181V14.357a8.357,8.357,0,0,0-16.714,0v3.278a5.766,5.766,0,0,1-3.2,5.181.929.929,0,0,0,.418,1.755H26.215a.929.929,0,0,0,.418-1.755Z" transform="translate(0 -0.286)" fill="#fff"/>
  </g>
</svg>
