<svg id="_211677_image_icon" data-name="211677_image_icon" xmlns="http://www.w3.org/2000/svg" width="48" height="41.143" viewBox="0 0 48 41.143">
  <path id="Path_33" data-name="Path 33" d="M325.143,138.286A5.143,5.143,0,1,0,320,133.143,5.144,5.144,0,0,0,325.143,138.286Z" transform="translate(-289.143 -121.143)" fill="#a5a5a5"/>
  <path id="Path_34" data-name="Path 34" d="M77,64H35a3.009,3.009,0,0,0-3,3.032v35.079a3.009,3.009,0,0,0,3,3.032H77a3.009,3.009,0,0,0,3-3.032V67.032A3.009,3.009,0,0,0,77,64ZM65.954,85.182a1.84,1.84,0,0,0-1.371-.664,2.117,2.117,0,0,0-1.371.611l-2,1.693a2.01,2.01,0,0,1-1.232.5,1.773,1.773,0,0,1-1.179-.439c-.107-.1-.3-.279-.461-.439l-5.764-6.236a2.363,2.363,0,0,0-1.789-.8,2.433,2.433,0,0,0-1.8.836L35.429,96.593V68.682a1.413,1.413,0,0,1,1.4-1.254H75.157a1.36,1.36,0,0,1,1.382,1.286l.032,27.9Z" transform="translate(-32 -64)" fill="#a5a5a5"/>
</svg>
