<svg xmlns="http://www.w3.org/2000/svg" width="25.035" height="22.028" viewBox="0 0 25.035 22.028">
  <g id="_5402397_email_inbox_mail_message_envelope_icon_1_" data-name="5402397_email_inbox_mail_message_envelope_icon (1)" transform="translate(-2 -2)">
    <path id="Path_3361" data-name="Path 3361" d="M15.162,14.089a1.252,1.252,0,0,1-1.677,0L2.87,4.438A2.5,2.5,0,0,1,4.284,4H24.312a2.5,2.5,0,0,1,1.414.438Z" transform="translate(0.219 -2)"/>
    <path id="Path_3362" data-name="Path 3362" d="M27.035,6.26V19.7a3.755,3.755,0,0,1-3.755,3.755H5.755A3.755,3.755,0,0,1,2,19.7V6.26l10.865,9.914a2.511,2.511,0,0,0,3.317-.025Z" transform="translate(0 0.569)"/>
  </g>
</svg>
