<svg xmlns="http://www.w3.org/2000/svg" width="26.041" height="26" viewBox="0 0 26.041 26">
  <g id="icons" transform="translate(-1.984 -2)">
    <g id="user" transform="translate(1.984 2)">
      <g id="Ellipse_478" data-name="Ellipse 478" transform="translate(6.521)" fill="none" stroke="#000" stroke-width="2.5">
        <ellipse cx="6.5" cy="7.8" rx="6.5" ry="7.8" stroke="none"/>
        <ellipse cx="6.5" cy="7.8" rx="5.25" ry="6.55" fill="none"/>
      </g>
      <g id="Path_3764" data-name="Path 3764" transform="translate(-1.984 1.828)" fill="none">
        <path d="M27.745,20.4a11.848,11.848,0,0,0-6.24-5.46,2.911,2.911,0,0,0-2.34.13,7.981,7.981,0,0,1-8.32,0,2.925,2.925,0,0,0-2.34,0,11.848,11.848,0,0,0-6.24,5.46,2.566,2.566,0,0,0,2.47,3.64h20.54A2.633,2.633,0,0,0,27.745,20.4Z" stroke="none"/>
        <path d="M 25.27475166320801 21.67181587219238 C 25.42780685424805 21.67181587219238 25.50320243835449 21.58501052856445 25.52245903015137 21.55174827575684 C 25.51998329162598 21.54458618164062 25.51575660705566 21.53399658203125 25.50868034362793 21.51984596252441 C 24.61399269104004 19.73046684265137 22.89244651794434 18.23326110839844 20.65472030639648 17.29565811157227 C 20.57104873657227 17.27315902709961 20.48434829711914 17.2606143951416 20.40957069396973 17.2606143951416 C 20.395263671875 17.2606143951416 20.38321685791016 17.26108169555664 20.37340545654297 17.26172828674316 C 18.66385841369629 18.27120208740234 16.95544052124023 18.7418155670166 15.00475120544434 18.7418155670166 C 13.11376667022705 18.7418155670166 11.45030975341797 18.29948997497559 9.79293155670166 17.35282516479492 C 9.725662231445312 17.33551597595215 9.659246444702148 17.32567596435547 9.604660987854004 17.32567596435547 C 9.597359657287598 17.32567596435547 9.591250419616699 17.32586669921875 9.586299896240234 17.32612800598145 L 9.538540840148926 17.35000419616699 L 9.45133113861084 17.38568496704102 C 7.186144351959229 18.31235122680664 5.438633441925049 19.80879783630371 4.524413585662842 21.60310554504395 C 4.567559719085693 21.63687705993652 4.637131214141846 21.67181587219238 4.734751224517822 21.67181587219238 L 25.27475166320801 21.67181587219238 M 25.27475166320801 24.17181587219238 L 4.734751224517822 24.17181587219238 C 2.784751176834106 24.17181587219238 1.354751229286194 22.22181510925293 2.264751195907593 20.53181457519531 C 3.434751272201538 18.19181442260742 5.644751071929932 16.2418155670166 8.504751205444336 15.07181549072266 C 9.284749984741211 14.68181419372559 10.19475078582764 14.81181621551514 10.84475135803223 15.07181549072266 C 12.14475154876709 15.85181522369385 13.44475078582764 16.2418155670166 15.00475120544434 16.2418155670166 C 16.56475067138672 16.2418155670166 17.8647518157959 15.85181522369385 19.16475105285645 15.07181549072266 C 19.81475257873535 14.68181324005127 20.72475433349609 14.6818151473999 21.50475120544434 14.94181537628174 C 24.3647518157959 16.11181449890137 26.57475090026855 18.06181526184082 27.7447509765625 20.40181541442871 C 28.65475082397461 22.22181510925293 27.22475051879883 24.17181587219238 25.27475166320801 24.17181587219238 Z" stroke="none" fill="#000"/>
      </g>
    </g>
  </g>
</svg>
