<svg xmlns="http://www.w3.org/2000/svg" width="17.838" height="17.838" viewBox="0 0 17.838 17.838">
  <g id="_3669395_call_ic_icon_3_" data-name="3669395_call_ic_icon (3)" transform="translate(-6 -6)">
    <path id="Path_3876" data-name="Path 3876" d="M9.592,13.725a14.924,14.924,0,0,0,6.531,6.526l2.18-2.185a.994.994,0,0,1,1.006-.243,11.281,11.281,0,0,0,3.538.565.988.988,0,0,1,.991.991v3.469a.988.988,0,0,1-.991.991A16.846,16.846,0,0,1,6,6.991.991.991,0,0,1,6.991,6H10.46a.988.988,0,0,1,.991.991,11.281,11.281,0,0,0,.565,3.538.994.994,0,0,1-.243,1.006Z" transform="translate(0 0)"/>
  </g>
</svg>
