<svg xmlns="http://www.w3.org/2000/svg" width="24.038" height="24" viewBox="0 0 24.038 24">
  <g id="icons" transform="translate(-1.984 -2)">
    <g id="user" transform="translate(1.984 2)">
      <ellipse id="Ellipse_4" data-name="Ellipse 4" cx="6" cy="7.2" rx="6" ry="7.2" transform="translate(6.019)"/>
      <path id="Path_3360" data-name="Path 3360" d="M25.763,19.968A10.936,10.936,0,0,0,20,14.928a2.687,2.687,0,0,0-2.16.12,7.367,7.367,0,0,1-7.68,0,2.7,2.7,0,0,0-2.16,0,10.936,10.936,0,0,0-5.76,5.04,2.368,2.368,0,0,0,2.28,3.36h18.96A2.431,2.431,0,0,0,25.763,19.968Z" transform="translate(-1.984 0.552)"/>
    </g>
  </g>
</svg>
