<svg xmlns="http://www.w3.org/2000/svg" width="316.17" height="211" viewBox="0 0 316.17 211">
  <g id="OBJECTS" transform="translate(-63.419 -134.35)">
    <g id="Group_5224" data-name="Group 5224" transform="translate(63.419 134.35)">
      <g id="Group_5220" data-name="Group 5220">
        <path id="Path_3880" data-name="Path 3880" d="M354.4,311.608H88.069C73.592,299.574,62.529,281.1,63.476,262.946c2.358-45.188,80.692-54.8,105.391-63.5,37.693-13.278,54.015-64.158,99.2-65.078,88.414-1.8,147.7,125.5,86.336,177.24" transform="translate(-63.419 -134.35)" fill="#1a1818" fill-rule="evenodd"/>
        <path id="Path_3881" data-name="Path 3881" d="M165.191,186.039c16.72-5.451,31.759-5.919,33.592-1.048s-10.237,13.239-26.956,18.688-31.759,5.92-33.592,1.049,10.237-13.239,26.956-18.689" transform="translate(-74.818 -141.57)" fill="#1a1818" fill-rule="evenodd"/>
        <g id="Group_5217" data-name="Group 5217" transform="translate(0.088 47.358)">
          <path id="Path_3882" data-name="Path 3882" d="M334.188,274.668V246.037H314.931V206.758H287.682v29.012h-8.357V190.245H256.8V227.29h-7.266v-24.1H231.267v45.079H220.1v-9.373h-13.81V234.9H179.043v21.921h-8.357v-34.4H148.16v27.99h-7.267v-18.21H122.628v34.061H111.463v-7.083H91.48V283.8H77.311v-7.42H63.523c1.041,16.52,11.387,32.808,24.562,43.76H354.419a69.485,69.485,0,0,0,5.863-5.573v-39.9Z" transform="translate(-63.523 -190.245)" fill="#4a4f58"/>
        </g>
        <path id="Path_3883" data-name="Path 3883" d="M69.463,343.53H375.116a.9.9,0,1,1,0,1.794H69.463a.9.9,0,1,1,0-1.794" transform="translate(-64.205 -166.298)" fill="#1a1818" fill-rule="evenodd"/>
        <g id="Group_5218" data-name="Group 5218" transform="translate(269.366 41.966)">
          <rect id="Rectangle_847" data-name="Rectangle 847" width="8.611" height="14.915" transform="translate(1.158 3.015)" fill="#faffff"/>
          <rect id="Rectangle_848" data-name="Rectangle 848" width="10.927" height="1.243" transform="translate(0 1.772)" fill="#7b7979"/>
          <path id="Path_3884" data-name="Path 3884" d="M383.487,183.881h7.021a.889.889,0,0,1,.886.886v.885H382.6v-.885a.889.889,0,0,1,.886-.886" transform="translate(-381.533 -183.881)" fill="#7b7979" fill-rule="evenodd"/>
          <rect id="Rectangle_849" data-name="Rectangle 849" width="10.927" height="1.243" transform="translate(0 16.686)" fill="#7b7979"/>
          <rect id="Rectangle_850" data-name="Rectangle 850" width="2.575" height="117.337" transform="translate(4.177 17.929)" fill="#79bf89"/>
          <rect id="Rectangle_851" data-name="Rectangle 851" width="10.927" height="1.243" transform="translate(0 9.85)" fill="#7b7979"/>
        </g>
        <path id="Path_3885" data-name="Path 3885" d="M139.015,337.43q.581-.591,1.151-1.235c4.551-5.151,6.756-10.913,4.927-12.871-1.746-1.869-6.538.4-10.929,5.094,2.157-7.8,2.419-14.921.445-16.767-2.232-2.084-6.486,3.345-9.577,12.166a59.158,59.158,0,0,0-1.975-7.216c-3.1-9.057-7.451-14.684-9.716-12.568-1.857,1.735-1.736,8.138.079,15.38-1.32-.863-2.52-1.1-3.4-.542-1.566.991-1.725,4.23-.648,8.16-.444-.549-.917-1.1-1.417-1.636-4.671-5.041-9.9-7.507-11.684-5.506a3.453,3.453,0,0,0-.5,2.929c-4.794-3.813-9.565-5.293-11.012-3.283-1.18,1.639.186,5.13,3.143,8.69a31.6,31.6,0,0,0-3.34-.5c-6.842-.658-12.387.981-12.387,3.661s5.545,5.386,12.387,6.044h54.458Z" transform="translate(-64.756 -160.197)" fill="#1a1818" fill-rule="evenodd"/>
        <path id="Path_3886" data-name="Path 3886" d="M353.895,338.035q-.522-.533-1.037-1.112c-4.1-4.641-6.086-9.83-4.439-11.595,1.574-1.684,5.89.363,9.844,4.589-1.943-7.025-2.178-13.441-.4-15.1,2.011-1.878,5.842,3.013,8.627,10.959a53.043,53.043,0,0,1,1.779-6.5c2.793-8.158,6.712-13.228,8.752-11.321,1.673,1.563,1.563,7.331-.071,13.855,1.189-.777,2.271-.992,3.065-.489,1.411.892,1.554,3.81.585,7.351.4-.495.825-.988,1.276-1.474,4.208-4.541,8.92-6.761,10.525-4.959a3.106,3.106,0,0,1,.451,2.638c4.318-3.435,8.617-4.768,9.92-2.957,1.063,1.476-.167,4.621-2.829,7.827a28.291,28.291,0,0,1,3.008-.45c6.163-.592,11.159.885,11.159,3.3s-5,4.851-11.159,5.444H353.895Z" transform="translate(-106.859 -160.802)" fill="#1a1818" fill-rule="evenodd"/>
        <g id="Group_5219" data-name="Group 5219" transform="translate(31.588 41.966)">
          <rect id="Rectangle_852" data-name="Rectangle 852" width="8.612" height="14.915" transform="translate(1.158 3.015)" fill="#efefef"/>
          <rect id="Rectangle_853" data-name="Rectangle 853" width="10.927" height="1.243" transform="translate(0 1.772)" fill="#7b7979"/>
          <path id="Path_3887" data-name="Path 3887" d="M102.846,183.881h7.021a.889.889,0,0,1,.886.886v.885H101.96v-.885a.889.889,0,0,1,.886-.886" transform="translate(-100.893 -183.881)" fill="#7b7979" fill-rule="evenodd"/>
          <rect id="Rectangle_854" data-name="Rectangle 854" width="10.927" height="1.243" transform="translate(0 16.686)" fill="#7b7979"/>
          <rect id="Rectangle_855" data-name="Rectangle 855" width="2.575" height="117.337" transform="translate(4.176 17.929)" fill="#79bf89"/>
          <rect id="Rectangle_856" data-name="Rectangle 856" width="10.927" height="1.243" transform="translate(0 9.85)" fill="#7b7979"/>
        </g>
      </g>
      <g id="Group_5223" data-name="Group 5223" transform="translate(42.854 79.518)">
        <path id="Path_3907" data-name="Path 3907" d="M227.61,382.009c62.575,0,113.612-1.712,113.612-3.813s-51.037-3.814-113.612-3.814S114,376.1,114,378.2s51.037,3.813,113.612,3.813" transform="translate(-113.998 -250.527)" fill="#1a1818" fill-rule="evenodd"/>
        <g id="Group_5222" data-name="Group 5222" transform="translate(5.168)">
          <path id="Path_3908" data-name="Path 3908" d="M162.98,277.413A42.883,42.883,0,1,1,120.1,320.3a42.882,42.882,0,0,1,42.882-42.882m0,9.608A33.274,33.274,0,1,0,196.255,320.3a33.274,33.274,0,0,0-33.275-33.274" transform="translate(-120.098 -235.717)" fill="#79bf89" fill-rule="evenodd"/>
          <path id="Path_3909" data-name="Path 3909" d="M163.994,284.051a37.258,37.258,0,1,1-37.259,37.258,37.258,37.258,0,0,1,37.259-37.258m0,3.984a33.274,33.274,0,1,0,33.275,33.274,33.274,33.274,0,0,0-33.275-33.274" transform="translate(-121.112 -236.731)" fill="#1a1818" fill-rule="evenodd"/>
          <path id="Path_3910" data-name="Path 3910" d="M169.4,333.979a7.264,7.264,0,1,0-7.265-7.264,7.278,7.278,0,0,0,7.265,7.264" transform="translate(-126.519 -242.138)" fill="#1a1818" fill-rule="evenodd"/>
          <path id="Path_3911" data-name="Path 3911" d="M321.561,277.413A42.883,42.883,0,1,1,278.679,320.3a42.882,42.882,0,0,1,42.882-42.882m0,9.608A33.274,33.274,0,1,0,354.835,320.3a33.275,33.275,0,0,0-33.274-33.274" transform="translate(-144.318 -235.717)" fill="#79bf89" fill-rule="evenodd"/>
          <path id="Path_3912" data-name="Path 3912" d="M322.575,284.051a37.258,37.258,0,1,1-37.259,37.258,37.258,37.258,0,0,1,37.259-37.258m0,3.984a33.274,33.274,0,1,0,33.274,33.274,33.275,33.275,0,0,0-33.274-33.274" transform="translate(-145.332 -236.731)" fill="#1a1818" fill-rule="evenodd"/>
          <path id="Path_3913" data-name="Path 3913" d="M327.981,333.979a7.264,7.264,0,1,0-7.264-7.264,7.278,7.278,0,0,0,7.264,7.264" transform="translate(-150.738 -242.138)" fill="#1a1818" fill-rule="evenodd"/>
          <path id="Path_3914" data-name="Path 3914" d="M207.945,273.553,204.23,258.32l5.846-.408.8,3.3,65.692-3.333-4.228-11.109,6.438-1.8,4.974,12.585,2.131,5.39,20.688,52.343-3.426,1.863-22.371-48.223-43.559,54.461-6.427-4.258,43.516-55.656-62.141,3.014L224.9,318.722,230.493,321v7.047l-62.373-9.58c-4.56-.7-2.534-3.656.028-6.43Zm11.012,45.169-9.5-38.949-34.615,33.539Z" transform="translate(-127.018 -230.761)" fill="#faffff" fill-rule="evenodd"/>
          <path id="Path_3915" data-name="Path 3915" d="M220.886,339.632l-52.765-8.345c-2.242-.355-2.891-1.245-2.668-2.388l53.482,7.686Z" transform="translate(-127.019 -243.581)" fill="#d8d8d8" fill-rule="evenodd"/>
          <path id="Path_3916" data-name="Path 3916" d="M317.5,319.863l-23.414-51L251.2,321.323l-3.038,4.585,4.477-2.363,40.777-50.974,22.371,48.223Z" transform="translate(-139.657 -234.411)" fill="#d8d8d8" fill-rule="evenodd"/>
          <path id="Path_3917" data-name="Path 3917" d="M237.242,351.27a13.161,13.161,0,1,0-13.161-13.161,13.187,13.187,0,0,0,13.161,13.161" transform="translate(-135.979 -242.977)" fill="#1a1818" fill-rule="evenodd"/>
          <path id="Path_3918" data-name="Path 3918" d="M227.736,323.776a13.443,13.443,0,0,1-.006,26.886c-5.254,0-29.609-7.436-46.2-12.5-5.976-1.826-10.944-3.342-13.654-4.094a7.546,7.546,0,0,1,1.478-14.947c.2,0,.4.008.607.024s.382.039.579.07l1.251.1-.538.52-.779-.063c-.177-.028-.363-.05-.558-.066s-.37-.022-.562-.022a6.983,6.983,0,0,0-1.361,13.833l.228.045v.019c2.732.765,7.62,2.256,13.472,4.044,16.561,5.056,40.864,12.475,46.042,12.475a12.879,12.879,0,1,0,0-25.759l-49.085-3.916.536-.52Z" transform="translate(-126.468 -242.087)" fill="#79bf89" stroke="#79bf89" stroke-width="1" fill-rule="evenodd"/>
          <path id="Path_3919" data-name="Path 3919" d="M220.593,269.508l62.141-3.013v-1.71L222.4,267.8Z" transform="translate(-135.447 -233.789)" fill="#d8d8d8" fill-rule="evenodd"/>
          <path id="Path_3920" data-name="Path 3920" d="M290.8,243.744l-3.442-9.046c-.485-1.271-.18-2.043,1.427-2.043h18.237l2.216,5.012h-14.76l2.619,7.424Z" transform="translate(-145.611 -228.881)" fill="#faffff" fill-rule="evenodd"/>
          <path id="Path_3921" data-name="Path 3921" d="M291.307,245.4l6.466-1.843a1.136,1.136,0,0,1,1.4.779l.408,1.43a1.134,1.134,0,0,1-.779,1.4l-6.466,1.843a1.134,1.134,0,0,1-1.4-.779l-.408-1.43a1.134,1.134,0,0,1,.778-1.4" transform="translate(-146.121 -230.54)" fill="#79bf89" fill-rule="evenodd"/>
          <path id="Path_3922" data-name="Path 3922" d="M303.949,232.8a2.665,2.665,0,0,1,3.674-3.862l9.092,8.632a12.764,12.764,0,0,1,4.159,9.334,12.184,12.184,0,0,1-.84,4.439,11.642,11.642,0,0,1-2.373,3.751,10.394,10.394,0,0,1-7.633,3.3H293.258a2.672,2.672,0,0,1,0-5.344h16.769a5.138,5.138,0,0,0,3.771-1.628,6.228,6.228,0,0,0,1.267-2.019,6.833,6.833,0,0,0,.465-2.5,7.512,7.512,0,0,0-2.489-5.472Z" transform="translate(-146.137 -228.201)" fill="#79bf89" fill-rule="evenodd"/>
          <path id="Path_3923" data-name="Path 3923" d="M212.567,258.292l-1.7-1.181-1.9-8.545,1.545-3.019,3.462,3.073,1.835,8.235Z" transform="translate(-133.67 -230.85)" fill="#faffff" fill-rule="evenodd"/>
          <path id="Path_3924" data-name="Path 3924" d="M210.448,259.17l6.888-.354a1.135,1.135,0,0,1,1.189,1.073l.076,1.484a1.135,1.135,0,0,1-1.072,1.189l-6.889.353a1.135,1.135,0,0,1-1.189-1.073l-.076-1.484a1.135,1.135,0,0,1,1.073-1.188" transform="translate(-133.733 -232.877)" fill="#79bf89" fill-rule="evenodd"/>
          <path id="Path_3925" data-name="Path 3925" d="M190.951,236.639c-.584-1.587.342-3.154,1.989-2.516,14.1,5.466,20.942,2.984,31.589,5.44,2.869.294,8.161,4.172,2.749,4.185-4.38.009-8.868.42-12.577,2.133-8.348,3.856-15.922,3.4-23.751-9.243" transform="translate(-130.893 -229.083)" fill="#363636" fill-rule="evenodd"/>
          <path id="Path_3926" data-name="Path 3926" d="M238.946,343.52a3.708,3.708,0,1,0-3.708-3.708,3.715,3.715,0,0,0,3.708,3.708" transform="translate(-137.683 -244.681)" fill="#d8d8d8" fill-rule="evenodd"/>
          <path id="Path_3927" data-name="Path 3927" d="M237.417,339.771h0a1.676,1.676,0,0,1,1.986-1.282l19.09,4.114-.7,3.268-19.09-4.114a1.675,1.675,0,0,1-1.282-1.986" transform="translate(-138.01 -245.04)" fill="#faffff" fill-rule="evenodd"/>
          <path id="Path_3928" data-name="Path 3928" d="M257.423,344.148l9.1-1.656a.654.654,0,0,1,.758.524l.416,2.291a.652.652,0,0,1-.524.757l-9.1,1.656a.654.654,0,0,1-.758-.524l-.416-2.291a.654.654,0,0,1,.524-.758" transform="translate(-140.99 -245.655)" fill="#79bf89" fill-rule="evenodd"/>
        </g>
      </g>
    </g>
  </g>
</svg>
