<svg xmlns="http://www.w3.org/2000/svg" width="19.8" height="19.8" viewBox="0 0 19.8 19.8">
  <g id="_9026018_swap_icon" data-name="9026018_swap_icon" transform="translate(-39.1 -39.1)">
    <path id="Path_3868" data-name="Path 3868" d="M80,52.273H93.091a.818.818,0,0,0,.818-.818V40.818A.818.818,0,0,0,93.091,40H81.636a.818.818,0,0,0-.818.818v.818" transform="translate(-35.909)" fill="none" stroke="#fff" stroke-linecap="round" stroke-width="1.8"/>
    <path id="Path_3869" data-name="Path 3869" d="M82.455,136,80,138.455l2.455,2.455" transform="translate(-35.909 -86.182)" fill="none" stroke="#fff" stroke-linecap="round" stroke-width="1.8"/>
    <path id="Path_3870" data-name="Path 3870" d="M53.909,96H40.818a.818.818,0,0,0-.818.818v10.636a.818.818,0,0,0,.818.818H52.273a.818.818,0,0,0,.818-.818v-.818" transform="translate(0 -50.273)" fill="none" stroke="#fff" stroke-linecap="round" stroke-width="1.8"/>
    <path id="Path_3871" data-name="Path 3871" d="M152,76.909l2.455-2.455L152,72" transform="translate(-100.545 -28.727)" fill="none" stroke="#fff" stroke-linecap="round" stroke-width="1.8"/>
  </g>
</svg>
