<svg xmlns="http://www.w3.org/2000/svg" width="20.01" height="20.011" viewBox="0 0 20.01 20.011">
  <g id="_1" data-name="1" transform="translate(-54.13 -50.139)">
    <path id="Path_3370" data-name="Path 3370" d="M110.98,66.941H104.1a.747.747,0,0,1-.747-.747V59.381h-2.8A.747.747,0,0,1,100,58.134l6.985-7.748a.747.747,0,0,1,1.11,0l6.984,7.748a.747.747,0,0,1-.555,1.247h-2.8v6.814a.747.747,0,0,1-.747.747Zm-6.137-1.493h5.391V58.634a.747.747,0,0,1,.747-.747h1.864L107.537,52l-5.306,5.886H104.1a.747.747,0,0,1,.747.747Z" transform="translate(-43.402 0)" fill="#fff"/>
    <path id="Path_3371" data-name="Path 3371" d="M70.89,339.577H57.38a3.254,3.254,0,0,1-3.25-3.25v-1.9a.747.747,0,1,1,1.493,0v1.9a1.759,1.759,0,0,0,1.757,1.757H70.89a1.759,1.759,0,0,0,1.757-1.757v-1.9a.747.747,0,1,1,1.493,0v1.9A3.254,3.254,0,0,1,70.89,339.577Z" transform="translate(0 -269.427)" fill="#fff"/>
  </g>
</svg>
